<?xml version="1.0" standalone="no"?>
<!DOCTYPE svg PUBLIC "-//W3C//DTD SVG 1.1//EN" "http://www.w3.org/Graphics/SVG/1.1/DTD/svg11.dtd" >
<svg xmlns="http://www.w3.org/2000/svg" xmlns:xlink="http://www.w3.org/1999/xlink" version="1.1">
<metadata>
Created by FontForge 20170910 at Sun May  4 14:07:20 2003
 By Jimmy Wärting
Copyright (c) Jason Walcott/Jukebox, 2003. All Rights Reserved.
</metadata>
<defs>
<font id="LuxuryRoyaleJF" horiz-adv-x="402" >
  <font-face 
    font-family="LuxuryRoyaleJF"
    font-weight="400"
    font-stretch="normal"
    units-per-em="1000"
    panose-1="0 0 4 0 0 0 0 0 0 0"
    ascent="800"
    descent="-200"
    x-height="215"
    cap-height="735"
    bbox="-406 -341 2028 947"
    underline-thickness="50"
    underline-position="-125"
    unicode-range="U+0020-F002"
  />
<missing-glyph horiz-adv-x="500" 
d="M63 0v895h375v-895h-375zM125 63h250v770h-250v-770z" />
    <glyph glyph-name=".notdef" horiz-adv-x="500" 
d="M63 0v895h375v-895h-375zM125 63h250v770h-250v-770z" />
    <glyph glyph-name=".null" horiz-adv-x="0" 
 />
    <glyph glyph-name="nonmarkingreturn" horiz-adv-x="200" 
 />
    <glyph glyph-name="space" unicode=" " horiz-adv-x="200" 
 />
    <glyph glyph-name="exclam" unicode="!" horiz-adv-x="321" 
d="M543 551l-365 -417q-13 -15 -19 -15h-13q-7 0 -11 5t0 10l316 431q12 16 25 13l56 -12q13 -3 13 -10q0 -3 -2 -5zM139 52q1 -14 -17 -37t-34 -23q-14 0 -25 9t-11 20q0 13 16.5 32t31.5 23q11 2 24.5 -5.5t14.5 -18.5z" />
    <glyph glyph-name="quotedbl" unicode="&#x22;" horiz-adv-x="430" 
d="M474 558q0 -29 -40.5 -77t-67.5 -48q-9 0 -18 5q17 6 37 28t20 36q-18 0 -18 25q0 13 16.5 32t31.5 23q11 2 25 -5.5t14 -18.5zM374 558q0 -29 -41 -77t-67 -48q-9 0 -18 5q17 6 37 28t20 36q-18 0 -18 25q0 13 16.5 32t31.5 23q11 2 25 -5.5t14 -18.5z" />
    <glyph glyph-name="numbersign" unicode="#" horiz-adv-x="387" 
d="M493 422l-6 -11q-9 -15 -24 -15h-99l-36 -65h99q15 0 6 -15l-6 -11q-8 -15 -23 -15h-99l-89 -157q-8 -15 -23 -15h-11q-15 0 -7 15l89 157h-65l-89 -157q-8 -15 -23 -15h-11q-15 0 -7 15l89 157h-83q-15 0 -7 15l6 11q9 15 24 15h83l36 65h-83q-15 0 -6 15l6 11
q8 15 23 15h83l93 165q8 15 24 15h11q14 0 6 -15l-93 -165h65l93 165q8 15 24 15h11q14 0 6 -15l-93 -165h99q15 0 7 -15zM323 396h-65l-36 -65h65z" />
    <glyph glyph-name="dollar" unicode="$" horiz-adv-x="659" 
d="M804 564q0 -26 -25.5 -66.5t-48.5 -40.5q-57 0 -168 47l-130 -196q67 -92 67 -148q0 -68 -92 -115q-78 -40 -180 -47l-75 -113q-10 -15 -14 -15q-7 0 -16.5 5t-6.5 10l74 112q-56 1 -91 21q-38 21 -38 56q0 55 72 93q66 34 145 34q20 0 45 -4l66 101q-66 97 -67 99
q-36 60 -36 103q0 51 40 81q37 29 94 29q53 0 159 -26l73 111q10 15 23 15q15 0 15 -12q0 -2 -1 -3l-78 -119q91 -22 144 -22q12 0 24 6t12 15q9 6 14 -11zM533 517q-109 47 -155 47q-74 0 -74 -66q0 -23 36 -70l72 -94zM429 209q0 23 -22 60l-53 -79q12 -3 12 -13
q0 -8 -5 -8q-2 0 -18 4l-71 -107q67 23 109 59q48 40 48 84zM309 178q-16 2 -29 2q-72 0 -131.5 -30t-59.5 -64q0 -42 63 -42q34 0 75 9z" />
    <glyph glyph-name="percent" unicode="%" horiz-adv-x="825" 
d="M822 278q0 -75 -107.5 -184.5t-182.5 -109.5q-38 0 -59.5 27t-21.5 75q0 103 117 192q103 78 185 78q69 0 69 -78zM782 589l-529 -580q-14 -15 -20 -15h-13q-12 0 -12 10q0 3 2 5l383 475q-51 -33 -96 -41q-48 -73 -121 -132q-78 -62 -130 -62q-38 0 -59.5 27t-21.5 75
q0 103 117 192q103 78 185 78q69 0 69 -78q0 -27 -18 -63q44 18 105 65q49 37 67 58q13 15 25 13l56 -12q13 -3 13 -10q0 -3 -2 -5zM501 573q0 26 -28 26q-35 0 -82 -37q-5 -8 -5 -16q0 -70 76 -76q39 68 39 103zM787 308q0 26 -28 26q-68 0 -166 -123q-93 -117 -93 -180
q0 -22 33 -22q75 0 168 124q86 113 86 175zM446 443q-84 12 -92 85q-55 -55 -97.5 -125.5t-42.5 -106.5q0 -22 33 -22q47 0 105 54q50 45 94 115z" />
    <glyph glyph-name="ampersand" unicode="&#x26;" horiz-adv-x="903" 
d="M1046 672q0 -40 -31 -85q-37 -53 -86 -53q-59 0 -208.5 69t-222.5 69q-43 0 -69 -24t-26 -60q0 -47 46 -117q39 -60 83 -98q-118 -26 -211 -88q-104 -69 -104 -139q0 -53 45 -86.5t112 -33.5q92 0 166 34q65 31 86 71q-150 26 -189 26q-14 0 -27.5 -11t-16.5 -11
q-7 0 -7 3q0 23 32 57q38 42 84 42q61 0 154 -16.5t151 -16.5q15 0 25.5 12t14.5 12q6 0 6 -5q0 -26 -28 -62q-35 -42 -78 -42q-41 0 -90 7q-19 -51 -102 -91q-89 -42 -196 -42q-105 0 -175 43q-76 47 -76 125q0 81 116 148q101 59 247 86q-99 97 -99 186q0 70 56 112
q51 38 123 38q68 0 214 -35.5t216 -35.5q15 0 31 7.5t16 20t7 11.5q11 -1 11 -27z" />
    <glyph glyph-name="quotesingle" unicode="'" horiz-adv-x="147" 
d="M289 558q0 -29 -41 -77t-67 -48q-9 0 -18 5q17 6 37 28t20 36q-18 0 -18 25q0 13 16.5 32t31.5 23q11 2 25 -5.5t14 -18.5z" />
    <glyph glyph-name="parenleft" unicode="(" horiz-adv-x="263" 
d="M559 703q0 -4 -9 -11q-32 -20 -94 -64q-185 -147 -271 -292q-108 -182 -108 -390q0 -9 2 -27.5t2 -28.5q0 -11 -6 -11q-5 0 -9 10q-38 81 -38 202q0 224 149 387q131 144 361 224q11 4 16 4t5 -3z" />
    <glyph glyph-name="parenright" unicode=")" horiz-adv-x="375" 
d="M495 492q0 -225 -149 -388q-131 -144 -361 -224q-12 -4 -16 -4q-5 0 -5 3q0 5 9 11q32 21 93 65q185 146 265 280q51 85 82 193q33 112 33 208q0 10 -2.5 28.5t-2.5 27.5q0 12 7 12q4 0 9 -11q38 -81 38 -201z" />
    <glyph glyph-name="asterisk" unicode="*" horiz-adv-x="488" 
d="M442 501q0 -22 -32 -30q-1 0 -51 -6q22 -9 43 -17q28 -13 28 -31q0 -22 -22 -22q-16 0 -32 19q-11 16 -23 31q5 -40 5 -46q0 -35 -23 -35q-24 0 -24 21q0 11 7 31q10 27 11 32q-46 -37 -63 -37q-22 0 -22 19q0 21 31 30q24 4 48 9q-3 3 -39 15q-27 9 -27 32t21 23
q19 0 37 -27.5t21 -27.5q-8 21 -8 50q0 38 24 38q23 0 23 -26q0 -13 -8 -32q-9 -22 -11 -31q6 3 28 23q17 16 33 16q25 0 25 -21z" />
    <glyph glyph-name="plus" unicode="+" horiz-adv-x="420" 
d="M408 265l-6 -17q-5 -15 -20 -15h-116l-40 -108q-5 -15 -20 -15h-23q-15 0 -10 15l40 108h-113q-15 0 -10 15l6 17q6 15 21 15h113l44 120q6 15 20 15h23q16 0 10 -15l-44 -120h116q15 0 9 -15z" />
    <glyph glyph-name="comma" unicode="," horiz-adv-x="203" 
d="M131 52q0 -29 -41 -77t-67 -48q-9 0 -18 5q17 6 37 28t20 36q-18 0 -18 25q0 13 16.5 32t31.5 23q11 2 25 -5.5t14 -18.5z" />
    <glyph glyph-name="hyphen" unicode="-" horiz-adv-x="355" 
d="M303 153l-6 -16q-5 -15 -20 -15h-188q-15 0 -10 15l6 16q5 15 20 15h188q15 0 10 -15z" />
    <glyph glyph-name="hyphen" unicode="&#x2010;" horiz-adv-x="355" 
d="M303 153l-6 -16q-5 -15 -20 -15h-188q-15 0 -10 15l6 16q5 15 20 15h188q15 0 10 -15z" />
    <glyph glyph-name="period" unicode="." horiz-adv-x="203" 
d="M131 52q1 -14 -17 -37t-34 -23q-14 0 -25 9t-11 20q0 13 16.5 32t31.5 23q11 2 24.5 -5.5t14.5 -18.5z" />
    <glyph glyph-name="slash" unicode="/" horiz-adv-x="326" 
d="M652 638l-618 -712q-13 -15 -19 -15h-13q-13 0 -13 10q0 3 2 5l579 726q13 16 24 13l47 -12q13 -3 13 -10q0 -3 -2 -5z" />
    <glyph glyph-name="zero" unicode="0" horiz-adv-x="578" 
d="M689 538q0 -90 -76 -221.5t-181 -222.5q-118 -101 -219 -101q-60 0 -95 43.5t-35 123.5q0 118 98 231q84 96 211 163q119 62 202 62q48 0 73 -26q22 -21 22 -52zM648 534q0 23 -15.5 37.5t-37.5 14.5q-79 0 -189 -104q-97 -92 -173.5 -217.5t-76.5 -190.5q0 -44 63 -44
q89 0 195 96q95 86 164.5 208t69.5 200z" />
    <glyph glyph-name="one" unicode="1" horiz-adv-x="400" 
d="M593 600q0 -9 -201 -262q-118 -149 -237 -297q-31 -42 -98 -42q-5 0 -18 1h-21q-22 0 -22 15q0 12 9 23q35 41 150 154q123 117 367 354q-25 -18 -142 -96q-124 -81 -126 -81q-14 0 -14 18q0 8 31 28q20 13 40 25q255 166 269 166q13 0 13 -6z" />
    <glyph glyph-name="two" unicode="2" horiz-adv-x="523" 
d="M648 500q0 -84 -120 -165q-67 -44 -252 -129q-166 -77 -217 -120l2 -4q78 52 162 52q71 0 181 -59q26 -14 27.5 -16t1.5 -3q0 -21 -38.5 -43.5t-61.5 -22.5q-29 0 -109 42t-113 42q-30 0 -62 -20q-20 -13 -44 -37q-19 -21 -21 -21q-7 0 -7 8q0 3 1 7q31 81 180 171
q163 98 229 152q140 115 140 215q0 43 -47 43q-43 0 -81 -48q-43 -54 -43 -133q0 -10 -20.5 -16t-37.5 -6q-48 0 -48 19q0 92 80 154q74 58 165 58q62 0 104 -27q49 -32 49 -93z" />
    <glyph glyph-name="three" unicode="3" horiz-adv-x="558" 
d="M673 506q0 -76 -85 -134q-76 -53 -156 -53l-4 -5q77 -24 77 -108q0 -91 -120 -157q-104 -58 -203 -58q-62 0 -102 26q-47 30 -47 89q0 24 14 53q16 33 35 33q20 0 66.5 -14.5t46.5 -24.5q0 2 -34 -31t-34 -64q0 -23 27 -23q79 0 161.5 80.5t82.5 158.5q0 31 -26 31
q-9 0 -27.5 -4.5t-28.5 -4.5q-27 0 -27 20q0 27 31 27q10 0 29 -6t29 -6q66 0 135 72t69 138q0 50 -61 50q-52 0 -85.5 -38t-33.5 -91q0 -11 -24 -17q-19 -5 -34 -5q-47 0 -47 19q0 78 80 122q65 35 150 35q53 0 96 -27q50 -32 50 -83z" />
    <glyph glyph-name="four" unicode="4" horiz-adv-x="575" 
d="M658 458q0 -6 -3 -10q-13 -14 -38 -44q-70 -84 -125 -160q-14 -21 -44 -65l7 -1q58 0 102 34q10 -3 6 -25q-45 -40 -108 -40q-14 0 -30 1q-25 -41 -77 -122q-21 -32 -97 -32q-64 0 -64 28q0 23 129 159q-51 25 -63 30q-34 13 -68 13q-16 0 -32 -2q-72 -47 -90 -47
q-17 0 -17 19q0 17 42 36q30 14 56 20q66 56 172 176q52 59 92 116q12 22 40 61q16 18 91 18q80 0 80 -14q0 -18 -202 -187q-108 -90 -218 -166h8q31 1 70 -16q32 -16 65 -32q32 32 125 115q111 99 168 140q8 6 13 6q10 0 10 -9z" />
    <glyph glyph-name="five" unicode="5" horiz-adv-x="563" 
d="M744 587q0 -29 -31 -69.5t-60 -40.5q-86 0 -159 22t-74 22q-6 0 -11 -6q-65 -82 -118 -143q25 8 72 8q72 0 122.5 -36t50.5 -92q0 -113 -123 -192q-107 -69 -218 -69q-174 0 -174 115q0 24 14 53q16 33 35 33q20 0 66.5 -14.5t46.5 -24.5q0 2 -37 -33.5t-37 -66.5
q0 -23 27 -23q79 0 185.5 100.5t106.5 175.5q0 43 -66 43q-60 0 -118 -18q-35 -37 -47 -37q-11 0 -11 19q0 26 50 44q202 253 212 253q1 0 9 -4q45 -28 120 -28q48 0 94 7q68 12 66 12q7 0 7 -10z" />
    <glyph glyph-name="six" unicode="6" horiz-adv-x="546" 
d="M693 507q0 -32 -17 -59t-32 -27q-20 0 -65 14q-48 15 -48 24q0 -1 40.5 38t40.5 68q0 23 -27 23q-89 0 -202 -117q-77 -80 -123 -158l4 -4q14 11 50 24q52 20 104 20q53 0 83 -27q27 -24 27 -62q0 -94 -106 -181q-112 -90 -250 -90q-118 0 -118 124q0 93 87 215
q83 118 200 201q126 88 225 88q127 0 127 -114zM423 280q0 16 -12.5 27t-30.5 11q-56 0 -119 -54q-52 -45 -94 -110q-38 -60 -38 -86q0 -47 60 -47q80 0 162 108q72 96 72 151z" />
    <glyph glyph-name="seven" unicode="7" horiz-adv-x="494" 
d="M738 611q7 -6 -1 -13q-49 -40 -154 -145q-116 -115 -174 -183q-77 -93 -184 -248q-19 -28 -87 -28q-58 0 -58 31q0 8 8 18q20 27 112 117q98 97 170 158q202 172 259 217l-6 2q-26 -15 -52 -29q-54 -25 -101 -25q-38 0 -81.5 23.5t-60.5 23.5q-37 0 -70 -54
q-11 -19 -23 -39.5t-23 -20.5q-19 0 -19 19q0 18 38 60q43 47 97 79q67 40 130 40q35 0 84 -25t73 -25q25 0 64 23l42 26q9 5 17 -2z" />
    <glyph glyph-name="eight" unicode="8" horiz-adv-x="559" 
d="M673 510q0 -61 -78 -117q-67 -48 -143 -63q47 -57 47 -116q0 -102 -80 -163q-75 -58 -186 -58q-99 0 -154 41q-49 37 -49 93q0 80 98 139q77 47 163 59q-27 49 -27 91q0 80 84 142t181 62q65 0 104.5 -31.5t39.5 -78.5zM621 537q0 61 -98 61q-68 0 -112.5 -35.5
t-44.5 -75.5q0 -44 72 -139q70 22 126.5 80t56.5 109zM403 126q0 30 -34 82q-33 48 -66 95q-80 -15 -139 -70.5t-59 -116.5q0 -97 126 -97q74 0 121 28q51 29 51 79z" />
    <glyph glyph-name="nine" unicode="9" horiz-adv-x="546" 
d="M669 495q0 -92 -87 -215q-83 -118 -200 -200q-126 -89 -225 -89q-61 0 -94 32t-33 83q0 31 17 58.5t32 27.5q20 0 66.5 -14.5t46.5 -24.5q0 1 -39.5 -38.5t-39.5 -66.5q0 -23 27 -23q89 0 201 117q76 78 122 157l-4 4q-14 -11 -50 -24q-52 -19 -104 -19q-53 0 -83 27
q-27 24 -27 62q0 94 106 180q112 90 250 90q118 0 118 -124zM594 545q0 46 -60 46q-80 0 -162 -108q-72 -96 -72 -151q0 -15 12.5 -26.5t30.5 -11.5q56 0 119 55q52 44 94 110q38 59 38 86z" />
    <glyph glyph-name="colon" unicode=":" horiz-adv-x="292" 
d="M253 212q1 -14 -17 -37t-34 -23q-14 0 -25 9t-11 20q0 13 16.5 32.5t31.5 22.5q11 2 24.5 -5t14.5 -19zM131 52q1 -14 -17 -37t-34 -23q-14 0 -25 9t-11 20q0 13 16.5 32t31.5 23q11 2 24.5 -5.5t14.5 -18.5z" />
    <glyph glyph-name="semicolon" unicode=";" horiz-adv-x="272" 
d="M253 212q1 -14 -17 -37t-34 -23q-14 0 -25 9t-11 20q0 13 16.5 32.5t31.5 22.5q11 2 24.5 -5t14.5 -19zM131 52q0 -29 -41 -77t-67 -48q-9 0 -18 5q17 6 37 28t20 36q-18 0 -18 25q0 13 16.5 32t31.5 23q11 2 25 -5.5t14 -18.5z" />
    <glyph glyph-name="less" unicode="&#x3c;" horiz-adv-x="515" 
d="M549 472l-31 -84l-296 -136l197 -138l-29 -77l-291 198l13 35z" />
    <glyph glyph-name="equal" unicode="=" horiz-adv-x="405" 
d="M390 285l-6 -16q-6 -15 -21 -15h-238q-15 0 -9 15l6 16q5 15 20 15h238q15 0 10 -15zM357 186l-6 -16q-5 -15 -20 -15h-238q-15 0 -10 15l6 16q5 15 20 15h238q15 0 10 -15z" />
    <glyph glyph-name="greater" unicode="&#x3e;" horiz-adv-x="538" 
d="M531 281l-13 -34l-437 -202l30 83l296 136l-196 139l28 77z" />
    <glyph glyph-name="question" unicode="?" horiz-adv-x="571" 
d="M631 521q0 -57 -110 -154q-80 -64 -159 -128q-50 -43 -117 -120q-9 -11 -22 -11q-8 0 -8 7q0 4 4 11q25 47 111 124q111 100 137 129q67 75 67 137q0 47 -57 47q-53 0 -115 -47q-65 -50 -65 -101q0 -25 19 -29.5t19 -10.5q0 -11 -11.5 -31t-21.5 -20q-23 0 -43.5 19
t-20.5 42q0 82 101 149q92 61 179 61q42 0 73 -16q40 -20 40 -58zM222 50q0 -15 -18 -36.5t-33 -21.5q-13 0 -24.5 8.5t-11.5 20.5q0 15 19 35t34 20q12 0 23 -7.5t11 -18.5z" />
    <glyph glyph-name="at" unicode="@" horiz-adv-x="958" 
d="M950 317q0 -137 -81 -235q-76 -92 -169 -92v-1q-87 0 -110 88q-60 -85 -142 -85q-66 0 -108 44q-46 47 -46 129q0 93 68 180q77 100 187 100q79 0 108 -73l17 62h110l-89 -312q-8 -28 -8 -46q0 -38 30 -38q56 0 114 66q72 82 72 212t-89.5 212t-233.5 82
q-171 0 -289 -117q-121 -120 -121 -302q0 -159 99.5 -253.5t270.5 -94.5q164 0 309 103l30 -34q-72 -55 -137 -81q-92 -37 -208 -37q-216 0 -345 110.5t-129 293.5q0 177 122 309q141 152 384 152q181 0 286 -100q98 -94 98 -242zM619 319q0 78 -53 78q-47 0 -98 -85
q-55 -90 -55 -190q0 -83 50 -83q53 0 104.5 96t51.5 184z" />
    <glyph glyph-name="A" unicode="A" horiz-adv-x="1192" 
d="M1345 683q0 -62 -73 -173q-23 -34 -155 -209q77 -5 77 -30q0 -17 -30 -60t-46 -43q-17 0 -46 2q-34 2 -46 2q-78 -122 -78 -197q0 -72 62 -71q1 -2 1 -5q0 -5 -5 -13t-10 -8q-38 0 -60 26t-22 66q0 79 76 202q-125 -1 -253 -6q-230 -219 -557 -219q-75 0 -120 20.5
t-45 59.5q0 95 247 168q216 64 544 93q39 45 161 209q90 120 148 170q83 70 171 70q59 0 59 -54zM1245 580q0 15 -12 25.5t-27 10.5q-63 0 -124 -48q-46 -36 -111 -120q-60 -78 -121 -157q118 9 229 10q97 132 114 158q52 80 52 121zM682 164q-270 -14 -434 -45
q-198 -38 -198 -95q0 -24 49 -35q32 -7 67 -7q300 0 516 182z" />
    <glyph glyph-name="B" unicode="B" horiz-adv-x="1383" 
d="M1687 584q0 -78 -183 -153q-149 -61 -382 -107q186 -60 186 -157q0 -95 -151 -150q-131 -48 -311 -48q-215 0 -249 69q-16 -21 -22 -29q-16 -20 -43 -19q-38 2 -38 32q0 9 5 16q55 74 200 240q-33 -3 -61 -3q-111 0 -111 60q0 57 128 57q60 0 143 -7q38 40 88 104
q15 19 27 19q13 0 13 -11q0 -8 -8 -19q-13 -19 -68 -99q96 -11 176 -29q233 42 407 100q214 71 214 132q0 64 -170 64q-118 0 -465 -73q-372 -78 -636 -166q-320 -107 -320 -181q0 -17 -14 -16q-16 0 -16 20q0 136 285 262q228 101 578 174q302 63 455 63q151 0 241 -33
q102 -38 102 -112zM1156 136q0 41 -61 85q-56 40 -150 74q-51 -6 -170 -15q-51 -69 -154 -210q1 -3 1 -6q0 -20 37 -38q54 -26 168 -26q154 0 248 46q81 40 81 90zM758 343q-77 13 -145 13q-51 0 -51 -23t75 -23q42 0 96 7q6 6 25 26z" />
    <glyph glyph-name="C" unicode="C" horiz-adv-x="777" 
d="M904 626q0 -69 -55 -183q-49 -100 -113 -184t-91 -84q-19 0 -43 24t-24 44q0 15 37 51q28 25 57 51q69 64 121 131q76 100 76 162q0 70 -82 70q-117 0 -278 -122q-151 -114 -262 -272q-116 -165 -116 -282q0 -151 142 -151q92 0 206 63q90 50 176 128q6 2 11 2
q23 0 17 -27q-94 -88 -211 -148q-133 -68 -245 -68q-103 0 -160 48t-57 142q0 146 133 322q124 165 303 281q185 120 328 120q130 0 130 -118z" />
    <glyph glyph-name="D" unicode="D" horiz-adv-x="1483" 
d="M1687 559q0 -153 -191 -295q-160 -119 -407 -201q-225 -74 -375 -74q-141 0 -141 64q7 8 19 8t16 -6q0 -26 74 -26q132 0 357 72q248 79 411 188q197 132 197 266q0 93 -202 93q-187 0 -479 -66q-158 -213 -451 -573q-16 -20 -43 -19q-38 2 -38 32q0 9 5 16
q189 221 438 514q5 6 10 11q-313 -77 -572 -181.5t-259 -155.5q0 -16 -13 -16q-17 0 -17 20q0 136 285 262q228 101 578 174q302 63 455 63q154 0 243 -39q100 -44 100 -131z" />
    <glyph glyph-name="E" unicode="E" horiz-adv-x="760" 
d="M1126 668q0 -36 -49.5 -96.5t-83.5 -60.5q-63 0 -159 35q-22 8 -167 69l-288 -85q23 -97 108 -170q68 10 128 10q39 0 62.5 -15.5t23.5 -37.5q0 -47 -77 -47q-71 0 -138 50q-130 -32 -222 -97q-105 -73 -105 -153q0 -60 51.5 -98.5t126.5 -38.5q122 0 212 51q82 47 82 95
q6 9 14 9q12 0 18 -16q0 -63 -101 -118q-106 -58 -242 -58q-120 0 -199 49q-86 53 -86 142q0 92 131 168q115 67 282 98q-77 77 -99 167q-72 -19 -149 -39q-10 -2 -14 -2q-8 0 -15 12.5t-7 18.5q0 7 12 11q64 16 168 43v10q0 66 57 113.5t137 47.5q68 0 262 -45l89 25
q85 24 132 24q45 0 75 -19.5t30 -51.5zM1080 684q0 25 -59 25q-43 0 -82 -12q-14 -4 -71 -22q103 -21 159 -21q17 0 35 8.5t18 21.5zM609 638q-85 30 -131 30q-49 0 -78.5 -28t-29.5 -68q110 30 239 66zM662 319q0 20 -41 20q-42 0 -93 -9q50 -30 102 -30q32 0 32 19z" />
    <glyph glyph-name="F" unicode="F" horiz-adv-x="1213" 
d="M1361 559q0 -79 -82 -173q-77 -89 -213 -175h100q15 0 15 -15v-16q0 -15 -15 -15h-177q-176 -98 -374 -156q-211 -63 -392 -63q-91 0 -143 27t-52 78q0 87 144 140q123 45 273 45q49 0 88 -9t39 -20q0 -24 -30 -64t-46 -40q-7 0 -43 2t-63 2q-116 0 -215.5 -24.5
t-99.5 -53.5q0 -18 46 -30q43 -12 104 -12q127 0 306 50q171 48 340 128h-221q-15 0 -15 15v16q0 15 15 15h313q161 86 255 173q103 94 103 171q0 93 -202 93q-212 0 -429 -51q-199 -47 -332 -118t-133 -131q0 -15 -12 -16q-18 -2 -18 20q0 170 259 284q236 105 533 105
q168 0 267 -45q107 -48 107 -137z" />
    <glyph glyph-name="G" unicode="G" horiz-adv-x="797" 
d="M953 637q0 -74 -79 -213q-74 -132 -101 -132q-19 0 -40.5 24t-21.5 44q0 8 54 61q68 68 100 109q54 69 54 115q0 63 -78 63q-99 0 -226.5 -71t-213.5 -173q-94 -111 -94 -212q0 -61 36 -99t97 -38q43 0 104 28q38 18 93 53q45 28 49 28q20 0 34 -17t14 -37
q0 -50 -65 -133q-107 -138 -281 -227q-178 -91 -349 -91q-67 0 -116 18q-69 26 -69 81q0 98 173 151q126 39 254 39q31 0 70 -6q55 -8 55 -23q0 -19 -32.5 -61.5t-50.5 -42.5q-17 0 -52.5 2t-52.5 2q-77 0 -180 -16q-147 -22 -147 -62q0 -42 122 -42q208 0 388.5 113
t274.5 299q-139 -106 -286 -106q-90 0 -144 41q-60 46 -60 133q0 119 116 243q104 111 260 187q153 75 267 75q124 0 124 -107z" />
    <glyph glyph-name="H" unicode="H" horiz-adv-x="1297" 
d="M1649 431q0 -14 -16 -20q-38 0 -310 -76q-55 -78 -181 -248q3 -22 3 -44q0 -117 -56 -203q-49 -76 -90 -76q-45 0 -45 82q0 62 46 137q26 42 102 145q-18 67 -76 132l-131 -28q-75 -112 -156 -234q-12 -21 -34 -10q-10 5 -10 16q0 9 8 21q58 85 139 193
q-225 -52 -308 -68q-180 -36 -277 -36q-243 0 -243 104q0 81 174 145q168 61 370 61q213 0 378 -62h7v1h3l129 165q22 25 34 19t-7 -32q-24 -32 -103 -140q137 38 377 104q84 96 194 242q9 19 23 13q15 -6 4 -22q-38 -54 -153 -217q2 0 55 13q42 9 66 9q30 0 45 -16
q39 -41 39 -70zM1260 321q-86 -23 -197 -52q14 -12 34.5 -49t26.5 -62q62 74 136 163zM1115 46q-29 -39 -76 -132q-30 -60 -30 -96q0 -10 4 -14q20 0 66 86q43 79 36 156zM879 343q-94 26 -155 35q-79 12 -189 12q-157 0 -316 -52q-163 -54 -163 -111q0 -11 21.5 -19.5
t52.5 -8.5q102 0 262 33q282 58 487 111z" />
    <glyph glyph-name="I" unicode="I" horiz-adv-x="824" 
d="M1003 638q0 -109 -81 -246q-83 -141 -216 -251q2 -2 21 -20q15 -14 15 -22q0 -17 -15 -17q-11 0 -23.5 11.5t-25.5 24.5q-223 -171 -470 -171q-90 0 -140.5 28.5t-50.5 75.5q0 87 143 140q123 45 272 45q49 0 88 -9t39 -20q0 -24 -30 -64t-46 -40q-7 0 -43 2t-63 2
q-120 0 -218 -22q-104 -24 -104 -56q0 -42 125 -42q221 0 461 194q-18 46 -18 105q0 166 92.5 307.5t200.5 141.5q87 0 87 -97zM970 640q0 57 -50 57q-74 0 -160 -141q-89 -146 -89 -282q0 -34 5 -64q126 110 210 234t84 196z" />
    <glyph glyph-name="J" unicode="J" horiz-adv-x="1077" 
d="M1206 559q0 -211 -208 -418q-183 -181 -462 -304q-266 -118 -468 -118q-91 0 -143 27t-52 78q0 73 139 122q124 44 268 44q49 0 88 -9t39 -20q0 -20 -25 -52.5t-41 -32.5q-7 0 -43 2t-63 2q-116 0 -215.5 -24.5t-99.5 -53.5q0 -42 150 -42q162 0 425 126q270 129 457 302
q214 198 214 367q0 93 -202 93q-212 0 -429 -51q-199 -47 -332 -118t-133 -131q0 -94 198 -172q181 -71 353 -71q12 -4 12 -16t-12 -14q-193 0 -352 51q-229 74 -229 226q0 169 259 284q237 105 533 105q168 0 267 -45q107 -48 107 -137z" />
    <glyph glyph-name="K" unicode="K" horiz-adv-x="950" 
d="M1331 704q0 -97 -177 -227q-143 -106 -362 -206q-193 -89 -295 -110q177 -100 224 -100q46 0 77 31q5 0 11.5 -5t6.5 -11q0 -4 -3 -8q-16 -23 -51 -45q-61 -39 -134 -39q-79 0 -308 146q-21 -5 -56 -8q-59 -80 -91 -115q-18 -20 -32 -6q-13 13 2 37q15 19 61 77
q-30 -4 -56 -4q-114 0 -114 64q0 41 50 65q44 21 109 21q83 0 119 -12q142 181 292 377q15 14 56 13q21 0 21 -10q0 -5 -3 -10q-9 -9 -144 -170q-144 -170 -179 -216q38 -17 88 -41q92 18 264 101q192 93 319 193q156 123 156 217q0 35 85 35q64 0 64 -34zM249 169
q-54 40 -115 40q-28 0 -46 -9.5t-18 -22.5q0 -19 23 -26q19 -5 66 -5q36 0 76 6q6 6 14 17z" />
    <glyph glyph-name="L" unicode="L" horiz-adv-x="972" 
d="M1139 670q0 -92 -90 -214q-81 -108 -193.5 -191t-180.5 -83q-15 0 -15 17q0 10 8 15q67 0 174 82q104 78 180 182q83 112 83 188q0 41 -54 41q-82 0 -222 -113q-81 -66 -266 -248q-180 -178 -267 -247q47 -10 207 -65q119 -41 195 -41q58 0 80 4q46 9 79 42q5 5 15 5
q15 0 15 -9q0 -3 -3 -7q-36 -53 -97 -103q-74 -62 -124 -62q-62 0 -200 78q-165 93 -228 113q-94 -62 -158 -62q-29 0 -47.5 13.5t-18.5 37.5q0 28 35 48q40 24 115 24q39 0 78 -5q40 35 245 246q171 178 283 262q163 121 285 121q87 0 87 -69zM187 67q-34 6 -68 6
q-54 0 -54 -26q0 -21 29 -21q37 0 93 41z" />
    <glyph glyph-name="M" unicode="M" horiz-adv-x="1385" 
d="M1569 645q0 -38 -21 -75l-277 -476q-38 -65 -38 -102q0 -57 64 -57q7 -3 7 -11t-6 -11q-71 0 -112 30q-45 32 -45 94q0 46 39 110l206 339q25 42 25 58q0 7 -5 7q-14 0 -126 -149q-153 -205 -215 -278q-126 -149 -175 -149q-32 0 -59 28.5t-27 60.5q0 39 63 183
q46 103 91 207q-110 -193 -320 -327q-216 -139 -424 -139q-195 0 -195 96q0 73 139 122q124 44 268 44q49 0 88 -9t39 -20q0 -20 -25 -52.5t-41 -32.5q-7 0 -43 2t-63 2q-116 0 -215.5 -24.5t-99.5 -53.5q0 -42 150 -42q162 0 352 110q176 103 298 252q126 154 126 276
q-14 25 -46 25q-25 0 -39 -14q0 23 23 43q30 26 81 26q80 0 80 -100q0 -70 -46 -203q-18 -52 -86 -220q-46 -114 -46 -141q0 -23 20 -23q25 0 260 302q166 213 183 233q97 112 146 112q47 0 47 -53z" />
    <glyph glyph-name="N" unicode="N" horiz-adv-x="1218" 
d="M1816 694q0 -45 -30 -45q-11 0 -11 11q0 4 2.5 12t2.5 13q0 21 -41 21q-75 0 -193 -112q-30 -28 -182 -201q-168 -192 -251 -278q-135 -140 -170 -140q-32 0 -58.5 28.5t-26.5 60.5q0 41 36 165q34 113 68 225q-110 -193 -320 -327q-216 -139 -424 -139q-195 0 -195 96
q0 73 139 122q124 44 268 44q49 0 88 -9t39 -20q0 -20 -25 -52.5t-41 -32.5q-7 0 -43 2t-63 2q-116 0 -215.5 -24.5t-99.5 -53.5q0 -42 150 -42q162 0 352 110q176 103 298 252q126 154 126 276q-12 25 -46 25q-25 0 -39 -14q0 23 23 43q30 26 81 26q93 0 93 -100
q0 -90 -71 -306.5t-71 -257.5q0 -23 20 -23q24 0 242 247q251 284 281 312q73 68 103 89q66 45 131 45q34 0 53.5 -14.5t19.5 -35.5z" />
    <glyph glyph-name="O" unicode="O" horiz-adv-x="916" 
d="M1071 575q0 -140 -141 -297q-129 -145 -321 -246.5t-344 -101.5q-119 0 -186 54q-70 56 -70 159q0 128 111 269q103 131 257.5 221.5t280.5 90.5h5q28 0 28 -18q0 -17 -16 -17h-21q-103 0 -243.5 -82t-237.5 -195q-106 -125 -106 -230q0 -149 212 -149q132 0 315 96
q176 93 301 220q134 137 134 242q0 52 -29 81.5t-80 29.5q-96 0 -278 -130q-69 -49 -216 -178q-138 -121 -170 -156q-18 -20 -54 -20q-27 0 -50 11q-29 13 -29 36q0 26 175 154q130 96 247 171q226 146 352 146q81 0 127.5 -41.5t46.5 -119.5z" />
    <glyph glyph-name="P" unicode="P" horiz-adv-x="1408" 
d="M1687 584q0 -109 -221 -221q-171 -86 -448 -161q-215 -59 -354 -78q-52 -69 -89 -115q-16 -20 -43 -19q-38 2 -38 32q0 9 5 16q10 13 64 75q-33 -2 -61 -2q-111 0 -111 63q7 8 19 8t16 -6q0 -30 75 -30q42 0 96 6l263 300q15 19 29 19q10 0 10 -11q0 -8 -7 -19
q-90 -131 -196 -274q117 20 320 80q259 76 421 153q210 99 210 182q0 64 -170 64q-118 0 -465 -73q-372 -78 -636 -166q-320 -107 -320 -181q0 -17 -14 -16q-16 0 -16 20q0 136 285 262q228 101 578 174q302 63 455 63q151 0 241 -33q102 -38 102 -112z" />
    <glyph glyph-name="Q" unicode="Q" horiz-adv-x="1026" 
d="M1414 580q0 -111 -179 -238q-145 -103 -376 -197q-198 -81 -336 -109q177 -100 224 -100q46 0 77 31q5 0 11.5 -5t6.5 -11q0 -4 -3 -8q-16 -23 -51 -45q-61 -39 -134 -39q-80 0 -304 143q-81 -19 -151 -19q-139 0 -139 67q0 41 50 65q45 21 109 21q100 0 250 -69
q129 25 334 105q235 92 386 190q185 120 185 217q0 68 -166 68q-150 0 -409 -57q-286 -63 -475 -149q-227 -104 -227 -208q-6 -11 -17 -11q-13 0 -21 18q0 148 181 268q154 103 405 165q226 56 422 56q123 0 207 -22q140 -37 140 -127zM297 33q-65 51 -137 51q-64 0 -64 -32
q0 -31 85 -31q68 0 116 12z" />
    <glyph glyph-name="R" unicode="R" horiz-adv-x="1397" 
d="M1687 580q0 -102 -220 -215q-163 -84 -405 -155q-68 -20 -209 -49q177 -100 224 -100q46 0 77 31q5 0 11.5 -5t6.5 -11q0 -4 -3 -8q-16 -23 -51 -45q-61 -39 -134 -39q-79 0 -308 146q-21 -5 -56 -8q-42 -61 -91 -115q-18 -20 -32 -6q-13 13 2 37q15 19 61 77
q-30 -4 -56 -4q-114 0 -114 64q0 41 50 65q44 21 109 21q74 0 125 -17q51 63 110 140q16 16 30 10q9 -3 1 -17q-25 -37 -104 -144q38 -17 88 -41q139 27 271 66q202 59 374 147q203 104 203 174q0 68 -166 68q-236 0 -705 -125q-278 -74 -470 -146q-217 -81 -239 -130
q-20 -44 -35 -38q-17 7 -3 45q36 98 225 201.5t483 184.5q328 90 603 90q123 0 207 -22q140 -37 140 -127zM605 169q-54 40 -115 40q-28 0 -46 -9.5t-18 -22.5q0 -19 23 -26q19 -5 66 -5q36 0 76 6q6 6 14 17z" />
    <glyph glyph-name="S" unicode="S" horiz-adv-x="785" 
d="M1151 668q0 -36 -49.5 -96.5t-83.5 -60.5q-63 0 -159 35q-22 8 -167 69l-289 -86q18 -49 93 -137q99 -116 123 -151q61 -90 61 -163q0 -109 -156 -179q-133 -60 -286 -60q-86 0 -141 29q-59 30 -59 83q0 81 106 136q95 50 211 50q35 0 76 -7q38 -6 46.5 -11.5t8.5 -15.5
q0 -12 -8 -12q-7 0 -14 2q-46 13 -104 13q-105 0 -192.5 -43t-87.5 -94q0 -61 92 -61q132 0 263 70q142 76 142 171q0 50 -87 169q-96 132 -114 203q-46 -14 -57.5 -16.5t-15.5 -2.5q-8 0 -15 12.5t-7 18.5q0 7 12 11q18 5 76 20v10q0 66 57 113.5t137 47.5q68 0 262 -45
l89 25q85 24 132 24q45 0 75 -19.5t30 -51.5zM1105 684q0 25 -59 25q-43 0 -82 -12q-14 -4 -71 -22q103 -21 159 -21q17 0 35 8.5t18 21.5zM634 638q-85 30 -131 30q-49 0 -78.5 -28t-29.5 -68q110 30 239 66z" />
    <glyph glyph-name="T" unicode="T" horiz-adv-x="1069" 
d="M1187 548q0 -111 -77 -248q-82 -147 -212 -241q-150 -108 -322 -108q-81 0 -129 24q-53 27 -53 76q0 68 82 109.5t211 41.5q49 0 88 -9t39 -20q0 -24 -30 -64t-46 -40q-7 0 -43 2t-63 2q-191 0 -191 -44q0 -19 46 -31q40 -11 93 -11q149 0 288 99q122 87 203 222
q76 130 76 236q0 49 -54.5 76.5t-147.5 27.5q-212 0 -429 -51q-199 -47 -332 -118t-133 -131q0 -19 -16 -16q-14 2 -14 20q0 170 259 284q236 105 533 105q176 0 273 -49q101 -50 101 -144z" />
    <glyph glyph-name="U" unicode="U" horiz-adv-x="744" 
d="M1035 735q0 -104 -119 -260q-111 -145 -277 -275q-42 -77 -56 -106q-18 -43 -58 -126q-8 -15 -20 -15q-29 0 -61 20q-35 22 -35 48q0 9 14 37q-135 -70 -228 -70q-67 0 -104.5 34t-37.5 92q0 176 311 515q73 81 93 88q14 6 40 6q32 0 65 -8q41 -10 41 -23q0 -4 -80 -82
q-108 -105 -183 -186q-215 -233 -215 -314q0 -88 91 -88q93 0 230 78q88 154 262 389q203 275 295 275q32 0 32 -29zM1004 714q0 17 -19 17q-51 0 -309 -463q139 120 231 244q97 129 97 202z" />
    <glyph glyph-name="V" unicode="V" horiz-adv-x="869" 
d="M1445 694q0 -45 -30 -45q-12 0 -12 11q0 4 3 12t3 13q0 21 -42 21q-74 0 -192 -112l-340 -344q-277 -275 -326 -275q-32 0 -58.5 28.5t-26.5 60.5q0 27 123 358q-205 -103 -234 -117q-144 -66 -201 -66q-72 0 -72 71q0 67 123 177q113 101 262 180q155 82 243 82
q41 0 57 -23q11 -18 11 -60q0 -36 -19 -102q129 69 215 118q5 3 10 3q16 0 16 -28q0 -21 -30 -36q-64 -34 -228 -118q-48 -116 -97 -232q-71 -173 -71 -197q0 -23 21 -23q24 0 272 247q156 156 313 312q67 63 106 89q68 45 128 45q73 0 73 -50zM613 635q0 36 -42 36
q-56 0 -181 -74q-116 -69 -212 -153q-102 -90 -102 -131q0 -40 45 -40q44 0 174 63q23 11 271 139q47 132 47 160z" />
    <glyph glyph-name="W" unicode="W" horiz-adv-x="976" 
d="M1245 685q0 -110 -119 -282q-116 -165 -270 -286q-167 -131 -286 -131q-72 0 -117 29q-38 24 -49 63q-147 -90 -237 -90q-67 0 -104.5 34t-37.5 92q0 103 81 245q69 120 171 231q95 102 152 127q12 6 40 6q25 0 56 -11q38 -13 38 -32q0 -5 -21 -21q-116 -86 -249 -227
q-196 -207 -196 -322q0 -39 29 -66q25 -22 50 -22q73 0 221 92q-2 2 -2 23q0 100 95 250q89 142 209 247q127 112 209 112q32 0 32 -39q0 -108 -127 -269q-117 -148 -292 -280q-11 -33 -11 -68q0 -68 63 -68q102 0 259 123q148 116 258 270q118 165 118 273q0 25 -26 25
q-19 0 -19 10q0 7 11.5 15t25.5 8q45 0 45 -61zM909 696q0 17 -19 17q-57 0 -195 -215q-120 -188 -158 -292q155 128 261 264q111 144 111 226z" />
    <glyph glyph-name="X" unicode="X" horiz-adv-x="856" 
d="M1217 694q0 -45 -30 -45q-11 0 -11 11q0 4 2.5 12.5t2.5 12.5q0 21 -41 21q-60 0 -176 -93q-81 -64 -234 -214l-2 -292q-1 -104 43 -103q11 -5 11 -13q0 -5 -5 -8q-88 1 -123 35.5t-35 124.5q0 72 1 149q-163 -158 -240 -219q-121 -98 -185 -98q-24 0 -45 19.5t-21 43.5
q0 7 4 7l22 -8t39 -8q72 0 193 99q69 56 233 220q1 90 4 274q1 49 -59 49q-49 0 -171.5 -70t-217.5 -151q-106 -91 -106 -137q0 -40 45 -40q59 0 171 48q73 32 181 90q89 48 93 48q16 0 16 -28q0 -20 -30 -36q-140 -73 -213 -103q-131 -53 -227 -53q-72 0 -72 71
q0 88 183 226q139 105 264 161q113 52 173 52q78 0 77 -83l-1 -210q138 135 227 199q119 85 199 85q61 0 61 -46z" />
    <glyph glyph-name="Y" unicode="Y" horiz-adv-x="960" 
d="M1593 694q0 -45 -29 -45q-12 0 -12 11q0 4 2.5 12t2.5 13q0 21 -41 21q-33 0 -102 -44q-57 -36 -91 -68l-324 -328q-212 -211 -376 -315q-222 -140 -426 -140q-185 0 -185 99q0 98 173 151q126 39 254 39q31 0 70 -6q55 -8 55 -23q0 -19 -32.5 -61.5t-50.5 -42.5
q-17 0 -52.5 2t-52.5 2q-77 0 -180 -16q-147 -22 -147 -62q0 -42 122 -42q149 0 287 59.5t242 166.5q-75 28 -75 122q0 29 72 223l-234 -117q-144 -66 -201 -66q-72 0 -72 71q0 67 122 177q113 101 262 180q156 82 244 82q68 0 68 -72q0 -44 -20 -113q128 69 215 118
q5 3 9 3q17 0 17 -28q0 -21 -30 -36q-65 -34 -228 -118q-28 -72 -55 -144q-42 -113 -42 -147q0 -69 44 -69q24 0 225 200q133 134 265 267q140 130 247 130q60 0 60 -46zM763 635q0 36 -42 36q-57 0 -181 -74q-117 -69 -212 -153q-102 -90 -102 -131q0 -40 45 -40
q43 0 173 63q24 11 272 139q47 132 47 160z" />
    <glyph glyph-name="Z" unicode="Z" horiz-adv-x="963" 
d="M1101 651q0 -120 -342 -139q-63 -54 -235 -213q-146 -135 -228 -200q47 -10 207 -65q119 -41 195 -41q58 0 80 4q46 9 79 42q5 5 15 5q15 0 15 -9q0 -3 -3 -7q-36 -53 -97 -103q-74 -62 -124 -62q-62 0 -200 78q-165 93 -228 113q-94 -62 -158 -62q-29 0 -47.5 13.5
t-18.5 37.5q0 28 35 48q40 24 115 24q39 0 78 -5q50 41 204 181t249 219q-24 -1 -49 -1q-156 0 -286 24q-115 22 -164 52q-21 13 -21 67q0 36 10 64.5t26 28.5q4 0 9 -3q213 -126 600 -136q144 103 216 103q32 0 50 -17t18 -41zM1073 649q0 28 -41 28q-54 0 -154 -71
q195 1 195 43zM187 67q-34 6 -68 6q-54 0 -54 -26q0 -21 29 -21q37 0 93 41z" />
    <glyph glyph-name="bracketleft" unicode="[" horiz-adv-x="379" 
d="M478 693l-11 -29h-57q-25 0 -37.5 -10t-21.5 -35l-252 -693q-5 -13 -5 -23q0 -24 29 -24h59l-11 -29h-174l307 843h174z" />
    <glyph glyph-name="backslash" unicode="\" horiz-adv-x="500" 
d="M309 -92h-39l-264 791h39z" />
    <glyph glyph-name="bracketright" unicode="]" horiz-adv-x="362" 
d="M505 693l-307 -843h-174l11 29h59q41 0 58 47l252 693q6 17 6 26q0 19 -33 19h-57l11 29h174z" />
    <glyph glyph-name="asciicircum" unicode="^" horiz-adv-x="665" 
d="M632 522h-68l-231 220l-232 -220h-65l258 277h80z" />
    <glyph glyph-name="underscore" unicode="_" horiz-adv-x="490" 
d="M448 -101h-490v58h490v-58z" />
    <glyph glyph-name="grave" unicode="`" horiz-adv-x="263" 
d="M220 653h-36l-114 61q-18 10 -18 29q0 30 30 30q19 0 39 -20z" />
    <glyph glyph-name="a" unicode="a" 
d="M437 148q-3 -12 -24 -32q-64 -60 -94 -80q-71 -48 -108 -48q-56 0 -56 60q0 13 1 20q-19 -26 -52 -47q-41 -26 -80 -26q-24 0 -42 19t-18 47q0 25 16 51q26 42 83 72t112 30q53 0 53 -38q41 38 58 38q12 0 31 -12.5t18 -23.5q-1 -9 -23 -34l-34 -36q-36 -41 -36 -60
q0 -11 13 -11q27 0 86 50q31 27 78 64q9 6 13 6q5 0 5 -6v-3zM211 160q2 12 -21 12q-41 0 -85 -42q-27 -26 -27 -48q0 -16 16 -16q32 0 73 50q21 26 44 44z" />
    <glyph glyph-name="b" unicode="b" horiz-adv-x="313" 
d="M446 463q0 -50 -166 -182q-116 -92 -189 -140q-18 -34 -18 -61q0 -29 20 -29q30 0 72 47q-9 11 -9 24q0 25 22 47.5t46 22.5q17 -2 17 -24q0 -30 -25 -58q12 -3 24 -3q24 0 95 48q9 6 11 -2q6 -13 -12 -28q-57 -48 -109 -48q-20 0 -30 5q-21 -29 -56 -56q-44 -34 -93 -34
q-63 0 -63 65q0 89 121 241q62 78 147 139q89 64 145 64q19 0 34.5 -10t15.5 -28zM403 452q-12 12 -105 -71q-81 -73 -120 -119q-25 -30 -41 -52q83 55 144.5 108t97.5 97q27 34 24 37z" />
    <glyph glyph-name="c" unicode="c" horiz-adv-x="308" 
d="M344 146q0 -9 -11 -18q-33 -30 -94 -83q-76 -58 -154 -58q-106 0 -106 86q0 56 60 102q57 45 117 45q28 0 50.5 -11t22.5 -26q0 -24 -18 -51.5t-37 -27.5q-38 0 -38 20q0 7 26 32q14 13 14 17q0 5 -6 5q-14 0 -36 -18q-25 -20 -39.5 -47t-14.5 -48q0 -36 37 -36
q66 0 135.5 62t82.5 66q4 1 7 -2.5t2 -8.5z" />
    <glyph glyph-name="d" unicode="d" horiz-adv-x="363" 
d="M550 485q0 -7 -11 -16q-101 -82 -210 -210q-127 -148 -127 -207q0 -17 16 -17q23 0 84 52q28 24 79 65q8 6 13 5t4 -8q-3 -15 -24 -33q-86 -74 -92 -78q-64 -49 -105 -49q-38 0 -38 52v12q-70 -58 -119 -58q-24 0 -42 19t-18 47q0 58 72 107q67 47 134 47q30 0 30 -20
q40 70 135 180q99 114 132 120q17 3 33 3q32 0 45 -5q7 -1 9 -8zM183 172h-3q-45 -5 -87 -51q-19 -21 -19 -39q0 -21 20 -21q17 0 52 28q9 36 37 83z" />
    <glyph glyph-name="e" unicode="e" horiz-adv-x="288" 
d="M323 143q-2 -9 -10 -15q-33 -30 -94 -83q-39 -30 -61 -40q-37 -18 -82 -18q-42 0 -68 21q-29 23 -29 65q0 52 54.5 99.5t122.5 47.5q24 0 45.5 -13t21.5 -31q0 -29 -39 -66q-43 -40 -87 -40q-12 0 -17 1v-6q0 -33 34 -33q52 0 117 58q71 63 84 67h2q9 0 6 -14zM176 173
q0 5 -6 5q-13 0 -37 -19t-39 -47l-7 -14h4q32 0 61 30q24 27 24 45z" />
    <glyph glyph-name="f" unicode="f" horiz-adv-x="251" 
d="M463 485q0 -7 -13 -16q-138 -97 -319 -305q-6 -71 -26 -125q2 -1 6 -1q23 0 55 28q103 92 114 92q5 0 5 -13q0 -14 -108 -101q-58 -46 -87 -45q-32 -87 -96 -171q-82 -105 -153 -105q-52 0 -52 50q0 62 79 174q4 6 124 158q1 -4 1 20q0 31 25.5 58t56.5 27
q101 119 201 210q81 74 95 75q39 3 33 3q39 0 51 -5q8 -2 8 -8zM60 6q-23 9 -36 26q-157 -198 -157 -234q0 -16 17 -16q41 0 109 100q60 88 67 124z" />
    <glyph glyph-name="g" unicode="g" horiz-adv-x="397" 
d="M431 149q0 -15 -20 -31q-89 -70 -94 -75q-59 -41 -107 -52q-5 -1 -16 -4q-23 -30 -70 -92q-62 -82 -146 -139q-77 -52 -120 -52q-20 0 -44.5 19.5t-24.5 34.5q0 48 117 128q103 70 182 96q31 42 94 125q-31 -27 -48 -39q-105 -72 -142 -72q-42 0 -42 46q0 64 79 122
q76 55 148 55q36 0 55 -13q3 -1 3 -6t-4 -5q-12 -1 -38 -7q-56 -21 -105 -70q-35 -35 -35 -51q0 -5 6 -5q14 0 53 24q35 22 62 45q34 34 89 85q6 6 16 6q12 0 19 -21q3 -15 7.5 -29.5t4.5 -15.5q-1 -13 -90 -133q43 8 102 56q86 69 92 73q17 11 17 -3zM57 -64
q-51 -22 -89 -47q-47 -31 -83.5 -69t-36.5 -59q0 -14 13 -14q27 0 124 103q19 20 72 86z" />
    <glyph glyph-name="h" unicode="h" horiz-adv-x="349" 
d="M450 485q0 -7 -13 -16q-141 -99 -302 -284q-18 -21 -43 -49q105 77 136 77q13 0 27.5 -18.5t14.5 -33.5q0 -9 -28 -41q-17 -19 -33 -37q-19 -23 -19 -34q0 -13 15 -13q22 0 83 51q28 24 79 65q8 6 13 5t4 -8q-3 -15 -24 -33q-39 -34 -79 -69q-63 -48 -105 -48
q-29 0 -46.5 18.5t-17.5 45.5q0 33 24 57q3 3 3 5t-2 2t-15 -7q-35 -20 -61 -41q-55 -46 -77 -79q-60 0 -60 13q0 25 92 142q90 114 172 197q136 138 167 143q17 3 33 3q42 0 54 -5q8 -2 8 -8z" />
    <glyph glyph-name="i" unicode="i" horiz-adv-x="217" 
d="M253 339q2 -18 -26 -51t-45 -33q-20 0 -35.5 12.5t-15.5 28.5q0 18 23 45t44 32q16 3 35 -7t20 -27zM252 149q-3 -15 -24 -33l-54 -48q-42 -36 -76 -54q-48 -25 -88 -25q-53 0 -53 42q0 41 45 101q59 78 80 83q13 3 33 3q41 0 54 -6q4 -2 4 -4q0 -4 -36 -41
q-21 -21 -43 -42q-51 -57 -51 -79q0 -14 12 -14q36 0 101 55q28 24 79 65q8 6 13 5t4 -8z" />
    <glyph glyph-name="j" unicode="j" horiz-adv-x="203" 
d="M245 339q1 -18 -26.5 -51t-45.5 -33q-20 0 -35.5 12.5t-15.5 28.5q0 18 23 45t44 32q16 3 35 -7t21 -27zM237 149q0 -16 -57 -62q-40 -32 -74 -54q-50 -33 -91 -42q-5 -1 -16 -4q-23 -31 -70.5 -93t-118.5 -118q-89 -72 -147 -72q-23 0 -46 15.5t-23 38.5q0 52 117 131
q105 71 182 93q1 0 86 119q71 100 89 115q7 6 16 6q12 0 25 -20.5t13 -34.5q0 -13 -97 -144q38 7 121 71q80 62 84 62q7 -3 7 -7zM-138 -64q-64 -28 -124 -68q-88 -59 -88 -100q0 -20 19 -20q42 0 193 188z" />
    <glyph glyph-name="k" unicode="k" horiz-adv-x="305" 
d="M450 485q0 -7 -13 -16q-141 -99 -302 -284q-21 -23 -64 -75q48 42 98 75q54 35 71 35q13 0 26 -14.5t13 -28.5q0 -13 -9 -13q-47 0 -152 -54q-4 -6 -4 -21q0 -53 47 -53q22 0 83 51q28 24 79 65q8 6 13 5t4 -8q-3 -15 -24 -33q-40 -34 -79 -69q-63 -48 -105 -48
q-28 0 -46 18t-18 46q0 13 4 26q-44 -30 -72 -67q-7 -9 -16 -22q-60 0 -60 13q0 25 92 142q90 114 172 197q136 138 167 143q17 3 33 3q42 0 54 -5q8 -2 8 -8z" />
    <glyph glyph-name="l" unicode="l" horiz-adv-x="268" 
d="M446 463q0 -35 -66 -98q-28 -26 -117.5 -98.5t-171.5 -125.5q-23 -43 -23 -67q0 -30 34 -30t77 28q45 34 107 80q9 7 13 3q3 -3 3 -9q0 -9 -8 -17q-49 -49 -110 -92q-64 -45 -119 -45q-35 0 -57.5 21.5t-22.5 56.5q0 79 119 228q62 78 147 139q90 64 145 64q50 0 50 -38z
M403 452q-4 4 -17 -3q-50 -26 -132 -106q-75 -74 -117 -133q85 56 143 107q138 120 123 135z" />
    <glyph glyph-name="m" unicode="m" horiz-adv-x="544" 
d="M579 149q-3 -15 -24 -33q-39 -34 -78 -69q-63 -48 -105 -48q-28 0 -46.5 18t-18.5 46q0 33 24 57q3 3 3 5t-2 2q-3 0 -15 -7q-25 -15 -72 -55q-27 -27 -71 -68q-11 0 -27.5 10t-16.5 20q0 9 54 72q39 45 39 61q-11 0 -50 -29q-42 -32 -77 -68q-27 -29 -63 -66
q-11 0 -27.5 10t-16.5 20q0 14 53 75q40 46 40 58q-10 0 -67 -40q-4 -2 -5 -2q-7 0 -9 8q-1 2 -1 5q0 6 6 12q16 15 58 40q50 30 71 30q13 0 27 -12t14 -23q0 -8 -10 -24q78 59 110 59q13 0 27 -12t14 -23q0 -8 -15 -32l-3 -6q20 17 67.5 45.5t57.5 27.5q13 -1 27 -19
t14 -33q0 -9 -28 -41q-17 -19 -33 -37q-19 -23 -19 -34q0 -13 15 -13q22 0 83 51q28 24 79 65q8 6 13 5t4 -8z" />
    <glyph glyph-name="n" unicode="n" horiz-adv-x="414" 
d="M449 149q-3 -15 -24 -33q-40 -34 -79 -69q-63 -48 -105 -48q-28 0 -46 18t-18 46q0 33 24 57q3 3 3 5t-2 2q-3 0 -15 -7q-61 -36 -145 -120q-3 -3 -9 -3q-11 0 -27.5 10t-16.5 20q0 14 53 75q40 46 40 58q-10 0 -67 -40q-4 -2 -5 -2q-7 0 -9 8q-1 2 -1 5q0 6 6 12
q16 15 58 40q50 30 71 30q13 0 27 -12t14 -23q0 -8 -15 -32q-3 -5 -3 -8q0 -4 3 -4q2 0 8 5q18 15 66.5 45t58.5 29q13 -1 27 -19t14 -33q0 -9 -28 -41q-17 -19 -33 -37q-19 -23 -19 -34q0 -13 15 -13q22 0 83 51q28 24 79 65q8 6 13 5t4 -8z" />
    <glyph glyph-name="o" unicode="o" horiz-adv-x="312" 
d="M345 153q4 -14 -12 -28q-55 -47 -107 -47q-23 0 -31 4q-21 -28 -56 -56q-51 -40 -96 -40q-29 0 -49.5 19t-20.5 53q0 68 63 116q58 44 125 44q20 0 36.5 -5.5t16.5 -10.5t-4 -6q-66 -15 -113 -80q-18 -25 -18 -47q0 -21 17 -21q25 0 69 50q-9 11 -9 24q0 14 9 30
q23 40 55 40q19 0 19 -24q0 -33 -24 -59q6 -2 19 -2q24 0 53 17q24 15 47 31q9 6 11 -2z" />
    <glyph glyph-name="p" unicode="p" horiz-adv-x="350" 
d="M385 148q-3 -12 -24 -32q-66 -62 -94 -80q-67 -44 -109 -44q-15 0 -23 13q-38 -18 -70 -18q-70 0 -70 60q-143 -156 -244 -325l-4 -1q-11 0 -23.5 15t-12.5 26q0 42 170.5 248.5t206.5 206.5q5 0 16 1.5t16 1.5q43 0 39 -17q30 15 52 15q23 0 39.5 -14t16.5 -38
q0 -61 -74 -123q8 -6 10 -6q27 0 86 50q31 27 78 64q9 6 13 6q5 0 5 -6v-3zM191 174q0 15 -15 15q-19 0 -81.5 -63.5t-62.5 -84.5q0 -8 10 -8q25 0 87 57.5t62 83.5z" />
    <glyph glyph-name="q" unicode="q" 
d="M437 148q-3 -12 -24 -32q-66 -62 -94 -80q-68 -44 -116 -44q0 -29 -58 -138q-63 -119 -100 -119q-18 0 -32 13.5t-14 38.5q0 50 40 127q33 66 74 114l-2 1q-37 -34 -87 -34q-24 0 -42 19t-18 47q0 25 16 51q26 42 83 72t112 30q53 0 53 -38q41 38 58 38q12 0 31 -12.5
t18 -23.5q-1 -9 -23 -34l-34 -36q-36 -41 -36 -60q0 -11 13 -11q27 0 86 50q31 27 78 64q9 6 13 6q5 0 5 -6v-3zM211 160q2 12 -21 12q-41 0 -85 -42q-27 -26 -27 -48q0 -16 16 -16q32 0 73 50q21 26 44 44zM178 -5q-22 -24 -81 -104q-58 -86 -58 -110q0 -17 11 -17
q21 0 74 108q47 94 54 123z" />
    <glyph glyph-name="r" unicode="r" horiz-adv-x="278" 
d="M313 149q-3 -15 -24 -33q-42 -37 -84 -73q-68 -53 -110 -53q-29 0 -46.5 18.5t-17.5 45.5q0 43 66 109q-24 -15 -47 -15h-2q-13 -11 -32 -27q-2 -2 -6 -2q-11 0 -11 13q0 7 3 8q9 6 19 16q-22 11 -22 29q0 21 37 49q33 26 51 26q17 0 17 -33q0 -10 -6.5 -22.5l-6.5 -12.5
q0 -6 11 -6q9 0 21 6q4 2 19 13q11 8 16 8q13 0 27 -18.5t14 -33.5q0 -9 -28 -41l-38 -42q-24 -27 -24 -38q0 -13 15 -13q21 0 93 60q28 24 79 65q8 6 13 5t4 -8z" />
    <glyph glyph-name="s" unicode="s" horiz-adv-x="281" 
d="M316 149q-3 -15 -24 -33l-70 -62q-55 -44 -95 -53q-30 -16 -67 -16q-44 0 -72 15t-28 41q0 33 33 33q21 0 21 -24q0 -3 -1.5 -12t-1.5 -11q0 -5 8 -5q18 0 37.5 29t19.5 62q0 26 -14 42q-2 2 -3 2q-26 -22 -57 -49q-2 -2 -4 -2q-14 0 -14 17q0 2 2 4q23 18 61 51v1
q0 31 31 56t64 25q16 0 16 -18q0 -9 -9.5 -26.5t-9.5 -30.5q0 -12 20 -43.5t20 -59.5q0 -19 -7 -33q13 8 48 38q28 24 79 65q8 6 13 5t4 -8z" />
    <glyph glyph-name="t" unicode="t" horiz-adv-x="236" 
d="M271 149q-2 -15 -24 -33l-54 -48q-42 -37 -76 -55q-48 -26 -110 -26q-49 0 -49 49q0 56 103 170h-15q-9 -1 -11 -1q-20 0 -20 22q0 20 10 26q7 4 78 4q61 70 80 75q8 2 32 2q32 0 45 -6q5 -1 5 -7q0 -5 -4 -8q-23 -20 -58 -59l14 1q29 2 29 -15q0 -13 -13 -19
q-6 -3 -66 -8q-89 -91 -121 -143q-9 -15 -9 -23q0 -17 21 -17q49 0 117 57q28 24 79 65q7 5 12 5q6 0 5 -8z" />
    <glyph glyph-name="u" unicode="u" horiz-adv-x="389" 
d="M424 149q-3 -15 -24 -33l-54 -48q-42 -36 -76 -54q-40 -21 -82 -21t-42 37q0 17 8 39q-31 -31 -79 -56q-39 -20 -73 -20q-41 0 -41 39q0 45 38 98t81 77q12 7 42 8q29 2 41 -3q9 -3 5 -7q-29 -28 -69 -78q-52 -63 -52 -83q0 -7 7 -7q15 0 55 30q34 28 63 58q22 24 45 49
q37 39 46.5 41t31.5 2q41 0 53 -5q8 -3 5 -7q-85 -93 -113 -140q-8 -14 -8 -21t7 -7q30 0 89 50q28 24 79 65q8 6 13 5t4 -8z" />
    <glyph glyph-name="v" unicode="v" horiz-adv-x="313" 
d="M348 146q0 -10 -73 -74q-53 -46 -96 -46q-27 0 -38 21q-73 -54 -133 -54q-51 0 -51 46q0 80 97 162q11 9 15 10q14 3 35 3q29 0 41 -5q8 -3 5 -7q-28 -26 -63 -71q-44 -56 -44 -79q0 -16 14 -16q29 0 78 37v4q0 52 43 99q39 43 71 43q19 0 19 -18q0 -54 -99 -133
q6 -15 21 -15q20 0 50 24q36 31 90 75q7 5 12 5q6 0 6 -11z" />
    <glyph glyph-name="w" unicode="w" horiz-adv-x="476" 
d="M511 146q0 -10 -73 -74q-53 -46 -96 -46q-27 0 -38 21q-73 -54 -126 -54q-44 0 -44 37q0 17 8 39q-80 -76 -140 -76q-41 0 -41 39q0 45 38 98t81 77q12 7 42 8q29 2 41 -3q9 -3 5 -7q-72 -70 -113 -140q-8 -14 -8 -21t7 -7q20 0 102 88q27 30 75 76q11 9 15 10q14 3 35 3
q29 0 41 -5q8 -3 5 -7q-31 -28 -63 -71q-44 -58 -44 -87q0 -7 7 -7q23 0 71 36v4q-1 46 45 96q42 46 69 46q19 0 19 -18q0 -54 -99 -133q6 -15 21 -15q20 0 50 24q36 31 90 75q7 5 12 5q6 0 6 -11z" />
    <glyph glyph-name="x" unicode="x" horiz-adv-x="326" 
d="M361 149q-3 -15 -24 -33l-54 -48q-42 -36 -76 -54q-52 -27 -98 -27q-52 0 -69 36q-69 -45 -78.5 -51.5t-16.5 -7.5q-4 0 -6 2.5t-2 6.5q1 7 9.5 14.5t89.5 69.5q1 56 34 102q-20 -14 -60 -43q-2 -1 -5.5 4t-3.5 10q0 10 35 34q74 51 99 51q27 0 27 -7l-3 -7
q-14 -33 -23 -67l94 71q10 7 25 7q29 0 32 -16q0 -5 -4 -10q-10 -11 -157 -107q0 -7 -1 -14q0 -36 27 -36q45 0 113 58q28 24 79 65q8 6 13 5t4 -8z" />
    <glyph glyph-name="y" unicode="y" horiz-adv-x="408" 
d="M442 149q0 -16 -57 -62q-40 -32 -74 -54q-50 -33 -91 -42q-5 -1 -16 -4q-23 -31 -70.5 -93t-117.5 -118q-89 -72 -147 -72q-23 0 -46 15.5t-23 38.5q0 52 117 131q105 71 182 93q32 42 94 125q-41 -36 -90 -68q-66 -42 -100 -42q-41 0 -41 44q0 37 36 87q33 47 66 68
t76 21q22 0 22 -16q0 -9 -48.5 -66t-48.5 -69q0 -5 5 -5q16 0 60 29q35 23 55 41q30 32 89 85q9 6 16 6q12 0 23 -26q9 -22 9 -34q0 -15 -92 -139q38 7 121 71q80 62 84 62q7 -3 7 -7zM68 -64q-64 -28 -124 -68q-88 -59 -88 -100q0 -20 19 -20q42 0 193 188z" />
    <glyph glyph-name="z" unicode="z" horiz-adv-x="328" 
d="M363 149q0 -16 -57 -62q-40 -32 -73 -54q-26 -17 -48 -27q-25 -80 -159 -191t-212 -111q-23 0 -46 15.5t-23 38.5q0 52 136 134q114 68 192 90q8 12 8 19q0 8 -13 8q-14 0 -43.5 -9t-32.5 -9q-6 0 -11 11t-5 21q0 3 1.5 7.5t106.5 63.5q99 56 116 63q-28 -7 -90 -7
q-17 0 -47 10q-3 -2 -69 -60q-7 -6 -15 -6q-14 0 -14 9q0 7 8 13q127 103 131 103q5 0 24 -7t42 -7q13 0 46 7t38 7q10 0 24 -12q15 -15 15 -31q0 -11 -100 -62q-65 -32 -131 -65l2 -4q61 20 83 20q36 0 42 -25q20 10 95 64q71 52 73 52q6 -3 6 -7zM46 -66
q-245 -107 -245 -166q0 -20 19 -20q36 0 122 75q80 69 104 111z" />
    <glyph glyph-name="braceleft" unicode="{" horiz-adv-x="500" 
d="M626 740l-8 -23q-85 -5 -120 -39q-27 -26 -59 -115l-17 -47q-39 -107 -76 -143q-41 -40 -143 -62q48 -12 67 -25q31 -21 31 -61q0 -41 -32 -128l-17 -48q-26 -70 -26 -93q0 -47 97 -50l-9 -23q-144 0 -173 22q-23 18 -23 55q0 35 20 91l39 105q18 51 18 74q0 53 -106 67
l10 27q91 14 120 32q40 26 70 109l38 105q42 115 110 146q43 20 189 24z" />
    <glyph glyph-name="bar" unicode="|" horiz-adv-x="500" 
d="M286 -136h-72v900h72v-900z" />
    <glyph glyph-name="braceright" unicode="}" horiz-adv-x="500" 
d="M593 324l-10 -27q-67 -8 -101 -24q-47 -22 -71 -72q-8 -16 -19 -45l-38 -105q-41 -113 -109 -146q-45 -22 -189 -22l8 23q84 3 117 32q27 25 58 111l18 48q40 109 78 148q44 45 144 66q-102 26 -102 87q0 28 32 118l17 47q27 74 27 99q0 49 -93 55l8 23q143 -4 172 -24
q25 -17 25 -52q0 -34 -22 -94l-38 -105q-17 -47 -17 -76q0 -38 35 -52q7 -2 70 -13z" />
    <glyph glyph-name="asciitilde" unicode="~" horiz-adv-x="647" 
d="M625 752q-17 -43 -52 -71q-44 -36 -104 -36q-47 0 -142 30.5t-140 30.5q-74 0 -125 -77l-27 15q37 62 74.5 88.5t90.5 26.5q48 0 139 -30t139 -30q74 0 122 69z" />
    <glyph glyph-name="Adieresis" unicode="&#xc4;" horiz-adv-x="1192" 
d="M1345 683q0 -62 -73 -173q-23 -34 -155 -209q77 -5 77 -30q0 -17 -30 -60t-46 -43q-17 0 -46 2q-34 2 -46 2q-78 -122 -78 -197q0 -72 62 -71q1 -2 1 -5q0 -5 -5 -13t-10 -8q-38 0 -60 26t-22 66q0 79 76 202q-125 -1 -253 -6q-230 -219 -557 -219q-75 0 -120 20.5
t-45 59.5q0 95 247 168q216 64 544 93q39 45 161 209q90 120 148 170q83 70 171 70q59 0 59 -54zM1245 580q0 15 -12 25.5t-27 10.5q-63 0 -124 -48q-46 -36 -111 -120q-60 -78 -121 -157q118 9 229 10q97 132 114 158q52 80 52 121zM682 164q-270 -14 -434 -45
q-198 -38 -198 -95q0 -24 49 -35q32 -7 67 -7q300 0 516 182zM1429 854q1 -11 -17.5 -33.5t-30.5 -22.5q-13 0 -23.5 8.5t-10.5 19.5q0 12 15.5 30t29.5 21q10 2 23 -5t14 -18zM1312 854q1 -11 -17.5 -33.5t-30.5 -22.5q-13 0 -23.5 8.5t-10.5 19.5q0 12 15.5 30t29.5 21
q10 2 23 -5t14 -18z" />
    <glyph glyph-name="Aring" unicode="&#xc5;" horiz-adv-x="1192" 
d="M1345 683q0 -62 -73 -173q-23 -34 -155 -209q77 -5 77 -30q0 -17 -30 -60t-46 -43q-17 0 -46 2q-34 2 -46 2q-78 -122 -78 -197q0 -72 62 -71q1 -2 1 -5q0 -5 -5 -13t-10 -8q-38 0 -60 26t-22 66q0 79 76 202q-125 -1 -253 -6q-230 -219 -557 -219q-75 0 -120 20.5
t-45 59.5q0 95 247 168q216 64 544 93q39 45 161 209q90 120 148 170q83 70 171 70q59 0 59 -54zM1245 580q0 15 -12 25.5t-27 10.5q-63 0 -124 -48q-46 -36 -111 -120q-60 -78 -121 -157q118 9 229 10q97 132 114 158q52 80 52 121zM682 164q-270 -14 -434 -45
q-198 -38 -198 -95q0 -24 49 -35q32 -7 67 -7q300 0 516 182zM1444 878q0 -41 -33.5 -72.5t-74.5 -31.5q-30 0 -49.5 18t-19.5 48q0 42 32 74.5t74 32.5q30 0 50.5 -19.5t20.5 -49.5zM1406 870q0 40 -41 40q-25 0 -44 -19t-19 -44q0 -39 41 -39q24 0 43.5 18.5t19.5 43.5z
" />
    <glyph glyph-name="Ccedilla" unicode="&#xc7;" horiz-adv-x="777" 
d="M904 626q0 -69 -55 -183q-49 -100 -113 -184t-91 -84q-19 0 -43 24t-24 44q0 15 37 51q28 25 57 51q69 64 121 131q76 100 76 162q0 70 -82 70q-117 0 -278 -122q-151 -114 -262 -272q-116 -165 -116 -282q0 -151 142 -151q92 0 206 63q90 50 176 128q6 2 11 2
q23 0 17 -27q-94 -88 -211 -148q-133 -68 -245 -68q-26 0 -49 3l-15 -29q23 2 29 2q26 0 26 -19q0 -45 -66 -100q-35 -29 -65 -29q-28 0 -28 22q0 31 32 31q9 0 17 -7t12 -7q19 0 36.5 19.5t17.5 37.5q0 13 -16 13t-36 -12q-7 -5 -14 -10.5t-12 -3.5q-7 3 1 13l53 84
q-140 33 -140 182q0 146 133 322q124 165 303 281q185 120 328 120q130 0 130 -118z" />
    <glyph glyph-name="Eacute" unicode="&#xc9;" horiz-adv-x="760" 
d="M1126 668q0 -36 -49.5 -96.5t-83.5 -60.5q-63 0 -159 35q-22 8 -167 69l-288 -85q23 -97 108 -170q68 10 128 10q39 0 62.5 -15.5t23.5 -37.5q0 -47 -77 -47q-71 0 -138 50q-130 -32 -222 -97q-105 -73 -105 -153q0 -60 51.5 -98.5t126.5 -38.5q122 0 212 51q82 47 82 95
q6 9 14 9q12 0 18 -16q0 -63 -101 -118q-106 -58 -242 -58q-120 0 -199 49q-86 53 -86 142q0 92 131 168q115 67 282 98q-77 77 -99 167q-72 -19 -149 -39q-10 -2 -14 -2q-8 0 -15 12.5t-7 18.5q0 7 12 11q64 16 168 43v10q0 66 57 113.5t137 47.5q68 0 262 -45l89 25
q85 24 132 24q45 0 75 -19.5t30 -51.5zM1080 684q0 25 -59 25q-43 0 -82 -12q-14 -4 -71 -22q103 -21 159 -21q17 0 35 8.5t18 21.5zM609 638q-85 30 -131 30q-49 0 -78.5 -28t-29.5 -68q110 30 239 66zM662 319q0 20 -41 20q-42 0 -93 -9q50 -30 102 -30q32 0 32 19z
M917 855q0 -19 -18 -29l-114 -61h-36l99 100q20 20 39 20q30 0 30 -30z" />
    <glyph glyph-name="Ntilde" unicode="&#xd1;" horiz-adv-x="1218" 
d="M1816 694q0 -45 -30 -45q-11 0 -11 11q0 4 2.5 12t2.5 13q0 21 -41 21q-75 0 -193 -112q-30 -28 -182 -201q-168 -192 -251 -278q-135 -140 -170 -140q-32 0 -58.5 28.5t-26.5 60.5q0 41 36 165q34 113 68 225q-110 -193 -320 -327q-216 -139 -424 -139q-195 0 -195 96
q0 73 139 122q124 44 268 44q49 0 88 -9t39 -20q0 -20 -25 -52.5t-41 -32.5q-7 0 -43 2t-63 2q-116 0 -215.5 -24.5t-99.5 -53.5q0 -42 150 -42q162 0 352 110q176 103 298 252q126 154 126 276q-12 25 -46 25q-25 0 -39 -14q0 23 23 43q30 26 81 26q93 0 93 -100
q0 -90 -71 -306.5t-71 -257.5q0 -23 20 -23q24 0 242 247q251 284 281 312q73 68 103 89q66 45 131 45q34 0 53.5 -14.5t19.5 -35.5zM1470 820q0 -5 -7 -15q-23 -32 -29 -38q-18 -18 -43 -18q-14 0 -44.5 16t-41.5 16q-14 0 -27.5 -11t-16.5 -11q-7 0 -7 4t12 21
q36 50 77 50q18 0 42.5 -16.5t38.5 -16.5q15 0 25.5 12t14.5 12q6 0 6 -5z" />
    <glyph glyph-name="Odieresis" unicode="&#xd6;" horiz-adv-x="916" 
d="M1071 575q0 -140 -141 -297q-129 -145 -321 -246.5t-344 -101.5q-119 0 -186 54q-70 56 -70 159q0 128 111 269q103 131 257.5 221.5t280.5 90.5h5q28 0 28 -18q0 -17 -16 -17h-21q-103 0 -243.5 -82t-237.5 -195q-106 -125 -106 -230q0 -149 212 -149q132 0 315 96
q176 93 301 220q134 137 134 242q0 52 -29 81.5t-80 29.5q-96 0 -278 -130q-69 -49 -216 -178q-138 -121 -170 -156q-18 -20 -54 -20q-27 0 -50 11q-29 13 -29 36q0 26 175 154q130 96 247 171q226 146 352 146q81 0 127.5 -41.5t46.5 -119.5zM1034 836q1 -11 -17.5 -33.5
t-30.5 -22.5q-13 0 -23.5 8.5t-10.5 19.5q0 12 15.5 30t29.5 21q10 2 23 -5t14 -18zM917 836q1 -11 -17.5 -33.5t-30.5 -22.5q-13 0 -23.5 8.5t-10.5 19.5q0 12 15.5 30t29.5 21q10 2 23 -5t14 -18z" />
    <glyph glyph-name="Udieresis" unicode="&#xdc;" horiz-adv-x="744" 
d="M1035 735q0 -104 -119 -260q-111 -145 -277 -275q-42 -77 -56 -106q-18 -43 -58 -126q-8 -15 -20 -15q-29 0 -61 20q-35 22 -35 48q0 9 14 37q-135 -70 -228 -70q-67 0 -104.5 34t-37.5 92q0 176 311 515q73 81 93 88q14 6 40 6q32 0 65 -8q41 -10 41 -23q0 -4 -80 -82
q-108 -105 -183 -186q-215 -233 -215 -314q0 -88 91 -88q93 0 230 78q88 154 262 389q203 275 295 275q32 0 32 -29zM1004 714q0 17 -19 17q-51 0 -309 -463q139 120 231 244q97 129 97 202zM875 824q1 -11 -17.5 -33.5t-30.5 -22.5q-13 0 -23.5 8.5t-10.5 19.5
q0 12 15.5 30t29.5 21q10 2 23 -5t14 -18zM758 824q1 -11 -17.5 -33.5t-30.5 -22.5q-13 0 -23.5 8.5t-10.5 19.5q0 12 15.5 30t29.5 21q10 2 23 -5t14 -18z" />
    <glyph glyph-name="aacute" unicode="&#xe1;" 
d="M437 148q-3 -12 -24 -32q-64 -60 -94 -80q-71 -48 -108 -48q-56 0 -56 60q0 13 1 20q-19 -26 -52 -47q-41 -26 -80 -26q-24 0 -42 19t-18 47q0 25 16 51q26 42 83 72t112 30q53 0 53 -38q41 38 58 38q12 0 31 -12.5t18 -23.5q-1 -9 -23 -34l-34 -36q-36 -41 -36 -60
q0 -11 13 -11q27 0 86 50q31 27 78 64q9 6 13 6q5 0 5 -6v-3zM211 160q2 12 -21 12q-41 0 -85 -42q-27 -26 -27 -48q0 -16 16 -16q32 0 73 50q21 26 44 44zM379 339q0 -19 -18 -29l-114 -61h-36l99 100q20 20 39 20q30 0 30 -30z" />
    <glyph glyph-name="agrave" unicode="&#xe0;" 
d="M437 148q-3 -12 -24 -32q-64 -60 -94 -80q-71 -48 -108 -48q-56 0 -56 60q0 13 1 20q-19 -26 -52 -47q-41 -26 -80 -26q-24 0 -42 19t-18 47q0 25 16 51q26 42 83 72t112 30q53 0 53 -38q41 38 58 38q12 0 31 -12.5t18 -23.5q-1 -9 -23 -34l-34 -36q-36 -41 -36 -60
q0 -11 13 -11q27 0 86 50q31 27 78 64q9 6 13 6q5 0 5 -6v-3zM211 160q2 12 -21 12q-41 0 -85 -42q-27 -26 -27 -48q0 -16 16 -16q32 0 73 50q21 26 44 44zM260 249h-36l-114 61q-18 10 -18 29q0 30 30 30q19 0 39 -20z" />
    <glyph glyph-name="acircumflex" unicode="&#xe2;" 
d="M437 148q-3 -12 -24 -32q-64 -60 -94 -80q-71 -48 -108 -48q-56 0 -56 60q0 13 1 20q-19 -26 -52 -47q-41 -26 -80 -26q-24 0 -42 19t-18 47q0 25 16 51q26 42 83 72t112 30q53 0 53 -38q41 38 58 38q12 0 31 -12.5t18 -23.5q-1 -9 -23 -34l-34 -36q-36 -41 -36 -60
q0 -11 13 -11q27 0 86 50q31 27 78 64q9 6 13 6q5 0 5 -6v-3zM211 160q2 12 -21 12q-41 0 -85 -42q-27 -26 -27 -48q0 -16 16 -16q32 0 73 50q21 26 44 44zM337 260l-23 -1q-11 0 -16.5 2t-14.5 15l-32 45l-51 -45q-5 -5 -17 -13q-11 -4 -30 -4h-24l75 81q26 28 52 28
q31 0 44 -28z" />
    <glyph glyph-name="adieresis" unicode="&#xe4;" 
d="M437 148q-3 -12 -24 -32q-64 -60 -94 -80q-71 -48 -108 -48q-56 0 -56 60q0 13 1 20q-19 -26 -52 -47q-41 -26 -80 -26q-24 0 -42 19t-18 47q0 25 16 51q26 42 83 72t112 30q53 0 53 -38q41 38 58 38q12 0 31 -12.5t18 -23.5q-1 -9 -23 -34l-34 -36q-36 -41 -36 -60
q0 -11 13 -11q27 0 86 50q31 27 78 64q9 6 13 6q5 0 5 -6v-3zM211 160q2 12 -21 12q-41 0 -85 -42q-27 -26 -27 -48q0 -16 16 -16q32 0 73 50q21 26 44 44zM357 312q1 -11 -17.5 -33.5t-30.5 -22.5q-13 0 -23.5 8.5t-10.5 19.5q0 12 15.5 30t29.5 21q10 2 23 -5t14 -18z
M240 312q1 -11 -17.5 -33.5t-30.5 -22.5q-13 0 -23.5 8.5t-10.5 19.5q0 12 15.5 30t29.5 21q10 2 23 -5t14 -18z" />
    <glyph glyph-name="atilde" unicode="&#xe3;" 
d="M437 148q-3 -12 -24 -32q-64 -60 -94 -80q-71 -48 -108 -48q-56 0 -56 60q0 13 1 20q-19 -26 -52 -47q-41 -26 -80 -26q-24 0 -42 19t-18 47q0 25 16 51q26 42 83 72t112 30q53 0 53 -38q41 38 58 38q12 0 31 -12.5t18 -23.5q-1 -9 -23 -34l-34 -36q-36 -41 -36 -60
q0 -11 13 -11q27 0 86 50q31 27 78 64q9 6 13 6q5 0 5 -6v-3zM211 160q2 12 -21 12q-41 0 -85 -42q-27 -26 -27 -48q0 -16 16 -16q32 0 73 50q21 26 44 44zM373 327q0 -5 -7 -16q-22 -31 -29 -38q-18 -18 -43 -18q-14 0 -44.5 16.5t-41.5 16.5q-14 0 -27.5 -11t-16.5 -11
q-7 0 -7 4t12 20q36 51 77 51q18 0 42.5 -17t39.5 -17q14 0 24.5 12t14.5 12q6 0 6 -4z" />
    <glyph glyph-name="aring" unicode="&#xe5;" 
d="M437 148q-3 -12 -24 -32q-64 -60 -94 -80q-71 -48 -108 -48q-56 0 -56 60q0 13 1 20q-19 -26 -52 -47q-41 -26 -80 -26q-24 0 -42 19t-18 47q0 25 16 51q26 42 83 72t112 30q53 0 53 -38q41 38 58 38q12 0 31 -12.5t18 -23.5q-1 -9 -23 -34l-34 -36q-36 -41 -36 -60
q0 -11 13 -11q27 0 86 50q31 27 78 64q9 6 13 6q5 0 5 -6v-3zM211 160q2 12 -21 12q-41 0 -85 -42q-27 -26 -27 -48q0 -16 16 -16q32 0 73 50q21 26 44 44zM362 356q0 -41 -33.5 -72.5t-74.5 -31.5q-30 0 -49.5 18t-19.5 48q0 42 32 74.5t74 32.5q30 0 50.5 -19.5
t20.5 -49.5zM324 348q0 40 -41 40q-25 0 -44 -19t-19 -44q0 -39 41 -39q24 0 43.5 18.5t19.5 43.5z" />
    <glyph glyph-name="ccedilla" unicode="&#xe7;" horiz-adv-x="308" 
d="M344 146q0 -9 -11 -18q-33 -30 -94 -83q-76 -58 -153 -58l-16 -31q23 2 29 2q26 0 26 -19q0 -45 -66 -100q-35 -29 -65 -29q-28 0 -28 22q0 31 32 31q9 0 17 -7t12 -7q19 0 36.5 19.5t17.5 37.5q0 13 -16 13t-36 -12q-7 -5 -14 -10.5t-12 -3.5q-7 3 1 13l52 83
q-77 13 -77 84q0 56 60 102q57 45 117 45q28 0 50.5 -11t22.5 -26q0 -24 -18 -51.5t-37 -27.5q-38 0 -38 20q0 7 26 32q14 13 14 17q0 5 -6 5q-14 0 -36 -18q-25 -20 -39.5 -47t-14.5 -48q0 -36 37 -36q66 0 135.5 62t82.5 66q4 1 7 -2.5t2 -8.5z" />
    <glyph glyph-name="eacute" unicode="&#xe9;" horiz-adv-x="287" 
d="M323 143q-2 -9 -10 -15q-33 -30 -94 -83q-39 -30 -61 -40q-37 -18 -82 -18q-42 0 -68 21q-29 23 -29 65q0 52 54.5 99.5t122.5 47.5q24 0 45.5 -13t21.5 -31q0 -29 -39 -66q-43 -40 -87 -40q-12 0 -17 1v-6q0 -33 34 -33q52 0 117 58q71 63 84 67h2q9 0 6 -14zM176 173
q0 5 -6 5q-13 0 -37 -19t-39 -47l-7 -14h4q32 0 61 30q24 27 24 45zM313 339q0 -19 -18 -29l-114 -61h-36l99 100q20 20 39 20q30 0 30 -30z" />
    <glyph glyph-name="egrave" unicode="&#xe8;" horiz-adv-x="288" 
d="M323 143q-2 -9 -10 -15q-33 -30 -94 -83q-39 -30 -61 -40q-37 -18 -82 -18q-42 0 -68 21q-29 23 -29 65q0 52 54.5 99.5t122.5 47.5q24 0 45.5 -13t21.5 -31q0 -29 -39 -66q-43 -40 -87 -40q-12 0 -17 1v-6q0 -33 34 -33q52 0 117 58q71 63 84 67h2q9 0 6 -14zM176 173
q0 5 -6 5q-13 0 -37 -19t-39 -47l-7 -14h4q32 0 61 30q24 27 24 45zM213 253h-36l-114 61q-18 10 -18 29q0 30 30 30q19 0 39 -20z" />
    <glyph glyph-name="ecircumflex" unicode="&#xea;" horiz-adv-x="288" 
d="M323 143q-2 -9 -10 -15q-33 -30 -94 -83q-39 -30 -61 -40q-37 -18 -82 -18q-42 0 -68 21q-29 23 -29 65q0 52 54.5 99.5t122.5 47.5q24 0 45.5 -13t21.5 -31q0 -29 -39 -66q-43 -40 -87 -40q-12 0 -17 1v-6q0 -33 34 -33q52 0 117 58q71 63 84 67h2q9 0 6 -14zM176 173
q0 5 -6 5q-13 0 -37 -19t-39 -47l-7 -14h4q32 0 61 30q24 27 24 45zM270 254l-23 -1q-11 0 -16.5 2t-14.5 15l-32 45l-51 -45q-5 -5 -17 -13q-11 -4 -30 -4h-24l75 81q26 28 52 28q31 0 44 -28z" />
    <glyph glyph-name="edieresis" unicode="&#xeb;" horiz-adv-x="288" 
d="M323 143q-2 -9 -10 -15q-33 -30 -94 -83q-39 -30 -61 -40q-37 -18 -82 -18q-42 0 -68 21q-29 23 -29 65q0 52 54.5 99.5t122.5 47.5q24 0 45.5 -13t21.5 -31q0 -29 -39 -66q-43 -40 -87 -40q-12 0 -17 1v-6q0 -33 34 -33q52 0 117 58q71 63 84 67h2q9 0 6 -14zM176 173
q0 5 -6 5q-13 0 -37 -19t-39 -47l-7 -14h4q32 0 61 30q24 27 24 45zM291 309q1 -11 -17.5 -33.5t-30.5 -22.5q-13 0 -23.5 8.5t-10.5 19.5q0 12 15.5 30t29.5 21q10 2 23 -5t14 -18zM174 309q1 -11 -17.5 -33.5t-30.5 -22.5q-13 0 -23.5 8.5t-10.5 19.5q0 12 15.5 30
t29.5 21q10 2 23 -5t14 -18z" />
    <glyph glyph-name="iacute" unicode="&#xed;" horiz-adv-x="217" 
d="M254 149q-3 -15 -24 -33l-54 -48q-42 -36 -76 -54q-48 -25 -88 -25q-53 0 -53 42q0 41 45 101q59 78 80 83q13 3 33 3q41 0 54 -6q4 -2 4 -4q0 -4 -36 -41q-21 -21 -43 -42q-51 -57 -51 -79q0 -14 12 -14q36 0 101 55q28 24 79 65q8 6 13 5t4 -8zM294 345q0 -19 -18 -29
l-114 -61h-36l99 100q20 20 39 20q30 0 30 -30z" />
    <glyph glyph-name="igrave" unicode="&#xec;" horiz-adv-x="217" 
d="M254 149q-3 -15 -24 -33l-54 -48q-42 -36 -76 -54q-48 -25 -88 -25q-53 0 -53 42q0 41 45 101q59 78 80 83q13 3 33 3q41 0 54 -6q4 -2 4 -4q0 -4 -36 -41q-21 -21 -43 -42q-51 -57 -51 -79q0 -14 12 -14q36 0 101 55q28 24 79 65q8 6 13 5t4 -8zM198 258h-36l-114 61
q-18 10 -18 29q0 30 30 30q19 0 39 -20z" />
    <glyph glyph-name="icircumflex" unicode="&#xee;" horiz-adv-x="217" 
d="M254 149q-3 -15 -24 -33l-54 -48q-42 -36 -76 -54q-48 -25 -88 -25q-53 0 -53 42q0 41 45 101q59 78 80 83q13 3 33 3q41 0 54 -6q4 -2 4 -4q0 -4 -36 -41q-21 -21 -43 -42q-51 -57 -51 -79q0 -14 12 -14q36 0 101 55q28 24 79 65q8 6 13 5t4 -8zM241 259l-23 -1
q-11 0 -16.5 2t-14.5 15l-32 45l-51 -45q-5 -5 -17 -13q-11 -4 -30 -4h-24l75 81q26 28 52 28q31 0 44 -28z" />
    <glyph glyph-name="idieresis" unicode="&#xef;" horiz-adv-x="217" 
d="M254 149q-3 -15 -24 -33l-54 -48q-42 -36 -76 -54q-48 -25 -88 -25q-53 0 -53 42q0 41 45 101q59 78 80 83q13 3 33 3q41 0 54 -6q4 -2 4 -4q0 -4 -36 -41q-21 -21 -43 -42q-51 -57 -51 -79q0 -14 12 -14q36 0 101 55q28 24 79 65q8 6 13 5t4 -8zM268 314
q1 -11 -17.5 -33.5t-30.5 -22.5q-13 0 -23.5 8.5t-10.5 19.5q0 12 15.5 30t29.5 21q10 2 23 -5t14 -18zM151 314q1 -11 -17.5 -33.5t-30.5 -22.5q-13 0 -23.5 8.5t-10.5 19.5q0 12 15.5 30t29.5 21q10 2 23 -5t14 -18z" />
    <glyph glyph-name="ntilde" unicode="&#xf1;" horiz-adv-x="414" 
d="M449 149q-3 -15 -24 -33q-40 -34 -79 -69q-63 -48 -105 -48q-28 0 -46 18t-18 46q0 33 24 57q3 3 3 5t-2 2q-3 0 -15 -7q-61 -36 -145 -120q-3 -3 -9 -3q-11 0 -27.5 10t-16.5 20q0 14 53 75q40 46 40 58q-10 0 -67 -40q-4 -2 -5 -2q-7 0 -9 8q-1 2 -1 5q0 6 6 12
q16 15 58 40q50 30 71 30q13 0 27 -12t14 -23q0 -8 -15 -32q-3 -5 -3 -8q0 -4 3 -4q2 0 8 5q18 15 66.5 45t58.5 29q13 -1 27 -19t14 -33q0 -9 -28 -41q-17 -19 -33 -37q-19 -23 -19 -34q0 -13 15 -13q22 0 83 51q28 24 79 65q8 6 13 5t4 -8zM380 320q0 -5 -7 -16
q-22 -31 -29 -38q-18 -18 -43 -18q-14 0 -44.5 16.5t-41.5 16.5q-14 0 -27.5 -11t-16.5 -11q-7 0 -7 4t12 20q36 51 77 51q18 0 42.5 -17t39.5 -17q14 0 24.5 12t14.5 12q6 0 6 -4z" />
    <glyph glyph-name="oacute" unicode="&#xf3;" horiz-adv-x="312" 
d="M345 153q4 -14 -12 -28q-55 -47 -107 -47q-23 0 -31 4q-21 -28 -56 -56q-51 -40 -96 -40q-29 0 -49.5 19t-20.5 53q0 68 63 116q58 44 125 44q20 0 36.5 -5.5t16.5 -10.5t-4 -6q-66 -15 -113 -80q-18 -25 -18 -47q0 -21 17 -21q25 0 69 50q-9 11 -9 24q0 14 9 30
q23 40 55 40q19 0 19 -24q0 -33 -24 -59q6 -2 19 -2q24 0 53 17q24 15 47 31q9 6 11 -2zM318 340q0 -19 -18 -29l-114 -61h-36l99 100q20 20 39 20q30 0 30 -30z" />
    <glyph glyph-name="ograve" unicode="&#xf2;" horiz-adv-x="312" 
d="M345 153q4 -14 -12 -28q-55 -47 -107 -47q-23 0 -31 4q-21 -28 -56 -56q-51 -40 -96 -40q-29 0 -49.5 19t-20.5 53q0 68 63 116q58 44 125 44q20 0 36.5 -5.5t16.5 -10.5t-4 -6q-66 -15 -113 -80q-18 -25 -18 -47q0 -21 17 -21q25 0 69 50q-9 11 -9 24q0 14 9 30
q23 40 55 40q19 0 19 -24q0 -33 -24 -59q6 -2 19 -2q24 0 53 17q24 15 47 31q9 6 11 -2zM246 245h-36l-114 61q-18 10 -18 29q0 30 30 30q19 0 39 -20z" />
    <glyph glyph-name="ocircumflex" unicode="&#xf4;" horiz-adv-x="312" 
d="M345 153q4 -14 -12 -28q-55 -47 -107 -47q-23 0 -31 4q-21 -28 -56 -56q-51 -40 -96 -40q-29 0 -49.5 19t-20.5 53q0 68 63 116q58 44 125 44q20 0 36.5 -5.5t16.5 -10.5t-4 -6q-66 -15 -113 -80q-18 -25 -18 -47q0 -21 17 -21q25 0 69 50q-9 11 -9 24q0 14 9 30
q23 40 55 40q19 0 19 -24q0 -33 -24 -59q6 -2 19 -2q24 0 53 17q24 15 47 31q9 6 11 -2zM275 248l-23 -1q-11 0 -16.5 2t-14.5 15l-32 45l-51 -45q-5 -5 -17 -13q-11 -4 -30 -4h-24l75 81q26 28 52 28q31 0 44 -28z" />
    <glyph glyph-name="odieresis" unicode="&#xf6;" horiz-adv-x="312" 
d="M345 153q4 -14 -12 -28q-55 -47 -107 -47q-23 0 -31 4q-21 -28 -56 -56q-51 -40 -96 -40q-29 0 -49.5 19t-20.5 53q0 68 63 116q58 44 125 44q20 0 36.5 -5.5t16.5 -10.5t-4 -6q-66 -15 -113 -80q-18 -25 -18 -47q0 -21 17 -21q25 0 69 50q-9 11 -9 24q0 14 9 30
q23 40 55 40q19 0 19 -24q0 -33 -24 -59q6 -2 19 -2q24 0 53 17q24 15 47 31q9 6 11 -2zM296 306q1 -11 -17.5 -33.5t-30.5 -22.5q-13 0 -23.5 8.5t-10.5 19.5q0 12 15.5 30t29.5 21q10 2 23 -5t14 -18zM179 306q1 -11 -17.5 -33.5t-30.5 -22.5q-13 0 -23.5 8.5t-10.5 19.5
q0 12 15.5 30t29.5 21q10 2 23 -5t14 -18z" />
    <glyph glyph-name="otilde" unicode="&#xf5;" horiz-adv-x="312" 
d="M345 153q4 -14 -12 -28q-55 -47 -107 -47q-23 0 -31 4q-21 -28 -56 -56q-51 -40 -96 -40q-29 0 -49.5 19t-20.5 53q0 68 63 116q58 44 125 44q20 0 36.5 -5.5t16.5 -10.5t-4 -6q-66 -15 -113 -80q-18 -25 -18 -47q0 -21 17 -21q25 0 69 50q-9 11 -9 24q0 14 9 30
q23 40 55 40q19 0 19 -24q0 -33 -24 -59q6 -2 19 -2q24 0 53 17q24 15 47 31q9 6 11 -2zM309 312q0 -5 -7 -16q-22 -31 -29 -38q-18 -18 -43 -18q-14 0 -44.5 16.5t-41.5 16.5q-14 0 -27.5 -11t-16.5 -11q-7 0 -7 4t12 20q36 51 77 51q18 0 42.5 -17t39.5 -17q14 0 24.5 12
t14.5 12q6 0 6 -4z" />
    <glyph glyph-name="uacute" unicode="&#xfa;" horiz-adv-x="389" 
d="M424 149q-3 -15 -24 -33l-54 -48q-42 -36 -76 -54q-40 -21 -82 -21t-42 37q0 17 8 39q-31 -31 -79 -56q-39 -20 -73 -20q-41 0 -41 39q0 45 38 98t81 77q12 7 42 8q29 2 41 -3q9 -3 5 -7q-29 -28 -69 -78q-52 -63 -52 -83q0 -7 7 -7q15 0 55 30q34 28 63 58q22 24 45 49
q37 39 46.5 41t31.5 2q41 0 53 -5q8 -3 5 -7q-85 -93 -113 -140q-8 -14 -8 -21t7 -7q30 0 89 50q28 24 79 65q8 6 13 5t4 -8zM367 342q0 -19 -18 -29l-114 -61h-36l99 100q20 20 39 20q30 0 30 -30z" />
    <glyph glyph-name="ugrave" unicode="&#xf9;" horiz-adv-x="389" 
d="M424 149q-3 -15 -24 -33l-54 -48q-42 -36 -76 -54q-40 -21 -82 -21t-42 37q0 17 8 39q-31 -31 -79 -56q-39 -20 -73 -20q-41 0 -41 39q0 45 38 98t81 77q12 7 42 8q29 2 41 -3q9 -3 5 -7q-29 -28 -69 -78q-52 -63 -52 -83q0 -7 7 -7q15 0 55 30q34 28 63 58q22 24 45 49
q37 39 46.5 41t31.5 2q41 0 53 -5q8 -3 5 -7q-85 -93 -113 -140q-8 -14 -8 -21t7 -7q30 0 89 50q28 24 79 65q8 6 13 5t4 -8zM274 258h-36l-114 61q-18 10 -18 29q0 30 30 30q19 0 39 -20z" />
    <glyph glyph-name="ucircumflex" unicode="&#xfb;" horiz-adv-x="389" 
d="M424 149q-3 -15 -24 -33l-54 -48q-42 -36 -76 -54q-40 -21 -82 -21t-42 37q0 17 8 39q-31 -31 -79 -56q-39 -20 -73 -20q-41 0 -41 39q0 45 38 98t81 77q12 7 42 8q29 2 41 -3q9 -3 5 -7q-29 -28 -69 -78q-52 -63 -52 -83q0 -7 7 -7q15 0 55 30q34 28 63 58q22 24 45 49
q37 39 46.5 41t31.5 2q41 0 53 -5q8 -3 5 -7q-85 -93 -113 -140q-8 -14 -8 -21t7 -7q30 0 89 50q28 24 79 65q8 6 13 5t4 -8zM327 269l-23 -1q-11 0 -16.5 2t-14.5 15l-32 45l-51 -45q-5 -5 -17 -13q-11 -4 -30 -4h-24l75 81q26 28 52 28q31 0 44 -28z" />
    <glyph glyph-name="udieresis" unicode="&#xfc;" horiz-adv-x="389" 
d="M424 149q-3 -15 -24 -33l-54 -48q-42 -36 -76 -54q-40 -21 -82 -21t-42 37q0 17 8 39q-31 -31 -79 -56q-39 -20 -73 -20q-41 0 -41 39q0 45 38 98t81 77q12 7 42 8q29 2 41 -3q9 -3 5 -7q-29 -28 -69 -78q-52 -63 -52 -83q0 -7 7 -7q15 0 55 30q34 28 63 58q22 24 45 49
q37 39 46.5 41t31.5 2q41 0 53 -5q8 -3 5 -7q-85 -93 -113 -140q-8 -14 -8 -21t7 -7q30 0 89 50q28 24 79 65q8 6 13 5t4 -8zM332 311q1 -11 -17.5 -33.5t-30.5 -22.5q-13 0 -23.5 8.5t-10.5 19.5q0 12 15.5 30t29.5 21q10 2 23 -5t14 -18zM215 311q1 -11 -17.5 -33.5
t-30.5 -22.5q-13 0 -23.5 8.5t-10.5 19.5q0 12 15.5 30t29.5 21q10 2 23 -5t14 -18z" />
    <glyph glyph-name="dagger" unicode="&#x2020;" horiz-adv-x="517" 
d="M606 496q0 -16 -10 -28.5t-25 -12.5q-24 0 -70 12.5t-70 13.5q-28 -38 -73 -124q-27 -52 -100 -135.5t-96 -112t-86 -117.5h-19q61 82 85 119q15 23 74 126q30 52 113 139q28 29 86 105q-40 -3 -101 -20q-18 -5 -29 -5q-22 0 -22 25q0 38 41 38q20 0 59.5 -12.5
t61.5 -12.5q30 46 61 108q25 50 32 61q25 36 53 36q24 0 24 -18q0 -23 -35 -61q-6 -7 -53 -51q-38 -36 -66 -74h10q24 0 69 12.5t62 12.5q24 0 24 -24z" />
    <glyph glyph-name="cent" unicode="&#xa2;" horiz-adv-x="735" 
d="M708 535q0 -71 -74 -192q-72 -115 -102 -115q-13 0 -29.5 16t-16.5 30q0 10 25 34q20 18 39 35q134 124 134 200q0 47 -56 47h-9l-370 -559q14 -3 30 -3q117 0 259 130q4 1 8 1q15 0 11 -18q-63 -60 -143 -101q-90 -46 -166 -46q-12 0 -23 1l-72 -110q-10 -15 -14 -15
q-7 0 -17 5t-6 10l76 115q-92 24 -92 123q0 96 85 211q79 108 195 188q120 82 218 92l54 81q9 15 23 15q15 0 15 -12q-1 -2 -1 -3l-54 -81q73 -8 73 -79zM577 582q-126 -37 -260.5 -189.5t-134.5 -262.5q0 -62 38 -87z" />
    <glyph glyph-name="sterling" unicode="&#xa3;" horiz-adv-x="580" 
d="M689 540q0 -25 -23.5 -46t-48.5 -21q-36 0 -36 24q0 17 20 35q17 14 36 21q4 8 4 15q0 28 -48 28q-106 0 -226 -263h116q9 0 9 -11q0 -15 -20 -15h-115q-62 -133 -161 -224q34 -18 44 -21q18 -6 49 -6q111 0 204 84l13 -10q-118 -140 -274 -140q-30 0 -50 14
q-13 9 -36 37q-60 -43 -104 -43q-39 0 -39 29q0 34 43 58q38 20 74 20q18 0 34 -4q52 74 111 206h-94q-13 0 -13 12q0 14 24 14h93q53 108 129 185q97 97 194 97q38 0 64.5 -19t26.5 -56zM123 63q-14 14 -28 14q-19 0 -38 -11q-23 -13 -23 -29q0 -14 18 -14q36 0 71 40z" />
    <glyph glyph-name="bullet" unicode="&#x2022;" horiz-adv-x="473" 
d="M355 327q0 -49 -35 -83.5t-83 -34.5q-49 0 -83.5 34.5t-34.5 83.5t34.5 83.5t83.5 34.5q48 0 83 -34.5t35 -83.5z" />
    <glyph glyph-name="germandbls" unicode="&#xdf;" horiz-adv-x="222" 
d="M363 431q0 -74 -69 -137q-64 -47 -128 -95q-69 -54 -69 -108q0 -34 48.5 -86.5t48.5 -86.5q0 -45 -32.5 -72.5t-78.5 -27.5q-66 0 -95 35q-6 8 -6 13q0 9 9 9q4 0 20 -11.5t34 -11.5q48 0 48 55q0 34 -14 88.5t-14 86.5q0 48 52 111q43 48 86 95q26 30 54 77q34 58 34 85
q0 13 -11 13q-21 0 -75 -71q-40 -52 -64 -93l-310 -539q-16 -28 -60 -28q-40 0 -40 22q0 6 5 13l412 588q44 63 63 84q53 60 95 60q57 0 57 -68z" />
    <glyph glyph-name="registered" unicode="&#xae;" horiz-adv-x="629" 
d="M597 504q0 -109 -77.5 -187t-186.5 -78q-110 0 -187.5 78t-77.5 187q0 110 78 187.5t187 77.5t186.5 -78t77.5 -187zM564 504q0 96 -67.5 163.5t-163.5 67.5t-163.5 -67.5t-67.5 -163.5q0 -95 67.5 -163t163.5 -68q95 0 163 68t68 163zM498 351q0 -9 -12 -9q-65 0 -89 41
q-14 38 -29 76q-20 42 -76 42v-107q0 -24 21 -25.5t21 -12.5q0 -12 -9 -12q-10 0 -29.5 1.5t-29.5 1.5t-30 -1.5t-30 -1.5q-8 3 -8 12t8 12q18 0 24 4.5t6 21.5v236q0 19 -8 24q-3 2 -21 3q-9 1 -9 11q0 9 8 12q16 0 49 -1t49 -1q7 0 21 1t20 1q39 0 65.5 -25t26.5 -62
q0 -56 -62 -81q44 -17 60 -76t56 -78q7 -3 7 -7zM380 593q0 31 -12 45t-42 14q-34 0 -34 -22v-108q88 1 88 71z" />
    <glyph glyph-name="copyright" unicode="&#xa9;" horiz-adv-x="739" 
d="M688 313q0 -134 -94.5 -228t-226.5 -94q-134 0 -228 94t-94 228q0 132 94.5 226.5t227.5 94.5q132 0 226.5 -94.5t94.5 -226.5zM646 313q0 115 -81.5 196.5t-197.5 81.5t-197.5 -81.5t-81.5 -196.5q0 -116 82 -198t197 -82q116 0 197.5 82t81.5 198zM520 141
q4 -14 -7 -14t-58.5 -8.5t-74.5 -8.5q-89 0 -152.5 58t-63.5 140q0 83 63.5 140.5t152.5 57.5q20 0 102 -13q14 -3 23.5 -3t5.5 -14q-8 -25 -7 -69q0 -8 -10 -8q-14 0 -14 11l1 7q5 32 -32 52q-31 16 -65 15q-66 -2 -111 -52.5t-45 -122.5q0 -73 45 -124t111 -51q57 0 89 26
q21 17 17 47q0 11 13 11q10 0 11 -7q-1 -47 6 -70z" />
    <glyph glyph-name="trademark" unicode="&#x2122;" horiz-adv-x="613" 
d="M739 478h-120v24h20q15 0 15 18v128l-74 -170h-18l-76 170v-110q0 -36 37 -36v-24h-96v24q35 0 35 36v137q0 18 -16 18h-17v24h77l77 -173l75 173h81v-24h-22q-15 0 -15 -18v-155q0 -14 6 -17q3 -1 10 -1h21v-24zM407 647h-22q-8 29 -11 34q-8 12 -29 12h-31v-173
q0 -14 6 -17q3 -1 10 -1h22v-24h-125v24h24q15 0 15 18v173h-33q-21 0 -29 -13q-3 -4 -11 -33h-22v70h234z" />
    <glyph glyph-name="acute" unicode="&#xb4;" horiz-adv-x="268" 
d="M214 743q0 -19 -18 -29l-114 -61h-36l99 100q20 20 39 20q30 0 30 -30z" />
    <glyph glyph-name="dieresis" unicode="&#xa8;" horiz-adv-x="302" 
d="M253 745q1 -11 -17.5 -33.5t-30.5 -22.5q-13 0 -23.5 8.5t-10.5 19.5q0 12 15.5 30t29.5 21q10 2 23 -5t14 -18zM136 745q1 -11 -17.5 -33.5t-30.5 -22.5q-13 0 -23.5 8.5t-10.5 19.5q0 12 15.5 30t29.5 21q10 2 23 -5t14 -18z" />
    <glyph glyph-name="AE" unicode="&#xc6;" horiz-adv-x="1662" 
d="M2028 668q0 -36 -49.5 -96.5t-83.5 -60.5q-64 0 -159 35q-22 8 -167 69l-288 -85q23 -97 107 -170q69 10 129 10q39 0 62.5 -15.5t23.5 -37.5q0 -47 -77 -47q-71 0 -139 50q-129 -32 -222 -97q-104 -73 -104 -153q0 -56 56 -90q49 -29 109 -29q134 0 224 45q79 40 79 83
q6 9 15 9q15 0 21 -16q0 -63 -101 -118q-106 -58 -242 -58q-120 0 -199 49q-86 53 -86 142q0 44 31 85q-113 -1 -227 -6q-230 -219 -557 -219q-75 0 -120 20.5t-45 59.5q0 95 247 168q216 64 544 93q39 45 161 209q90 120 148 170q83 70 171 70q37 0 52 -24q45 22 98 22
q67 0 262 -45l89 25q85 24 132 24q45 0 75 -19.5t30 -51.5zM1982 684q0 25 -59 25q-44 0 -82 -12q-14 -4 -71 -22q103 -21 159 -21q17 0 35 8.5t18 21.5zM1511 638q-85 30 -131 30q-49 0 -78.5 -28t-29.5 -68q110 30 239 66zM1564 319q0 20 -41 20q-43 0 -93 -9
q50 -30 102 -30q32 0 32 19zM1350 353q-60 60 -89 135q-16 -22 -140 -187q18 -2 33 -4q90 36 196 56zM1246 564q0 52 -36 52q-61 0 -121 -48q-47 -37 -113 -120q-61 -78 -122 -157q118 9 229 10l84 114q43 61 62 99q-22 -7 -47 -15q-10 -2 -14 -2q-8 0 -15 12.5t-7 18.5
q0 7 12 11q35 11 88 25zM686 164q-270 -14 -434 -45q-198 -38 -198 -95q0 -24 49 -35q32 -7 67 -7q300 0 516 182z" />
    <glyph glyph-name="Oslash" unicode="&#xd8;" horiz-adv-x="916" 
d="M1160 734q9 -12 -4 -20l-95 -64q10 -29 10 -69q0 -152 -141 -311q-127 -144 -319 -242t-346 -98q-135 0 -200 60l-75 -49q-13 -8 -21 4l-4 7q-9 12 4 21l71 46q-31 46 -31 113q0 106 74 223q68 109 183 201q210 168 392 168h5q28 0 28 -18q0 -17 -16 -17h-21
q-75 0 -176 -46t-192 -121q-95 -78 -157 -176.5t-62 -174.5q0 -63 52 -99l892 591q-27 39 -85 39q-102 0 -284 -130q-69 -49 -216 -178q-138 -121 -170 -156q-18 -20 -54 -20q-27 0 -50 11q-29 13 -29 36q0 26 175 154q130 96 247 171q226 146 352 146q105 0 145 -52l93 61
q13 8 21 -4zM1029 597q0 16 -3 30l-869 -575q50 -19 122 -19q132 0 315 98q175 93 301 223q134 138 134 243z" />
    <glyph glyph-name="ordfeminine" unicode="&#xaa;" horiz-adv-x="541" 
d="M646 550q-3 -12 -24 -32q-64 -60 -94 -80q-71 -48 -108 -48q-56 0 -56 60q0 13 1 20q-19 -26 -52 -47q-41 -26 -80 -26q-24 0 -42 19t-18 47q0 25 16 51q26 42 83 72t112 30q53 0 53 -38q41 38 58 38q12 0 31 -12.5t18 -23.5q-1 -9 -23 -34l-34 -36q-36 -41 -36 -60
q0 -11 13 -11q27 0 86 50q31 27 78 64q9 6 13 6q5 0 5 -6v-3zM420 562q2 12 -21 12q-41 0 -85 -42q-27 -26 -27 -48q0 -16 16 -16q32 0 73 50q21 26 44 44z" />
    <glyph glyph-name="ordmasculine" unicode="&#xba;" horiz-adv-x="445" 
d="M550 551q4 -14 -12 -28q-55 -47 -107 -47q-23 0 -31 4q-21 -28 -56 -56q-51 -40 -96 -40q-29 0 -48 18q-22 20 -22 54q0 68 63 116q58 44 125 44q20 0 36.5 -5.5t16.5 -10.5t-4 -6q-66 -15 -113 -80q-18 -25 -18 -47q0 -21 17 -21q25 0 69 50q-9 11 -9 24q0 14 9 30
q23 40 55 40q19 0 19 -24q0 -33 -24 -59q6 -2 19 -2q24 0 53 17q24 15 47 31q9 6 11 -2z" />
    <glyph glyph-name="ae" unicode="&#xe6;" horiz-adv-x="476" 
d="M512 143q-2 -9 -10 -15q-33 -30 -94 -83q-39 -30 -61 -40q-37 -18 -82 -18q-42 0 -68 21q-29 22 -29 64q-66 -77 -144 -77q-24 0 -42 19t-18 47q0 25 16 51q26 42 83 72t112 30q52 0 53 -37q54 43 117 43q24 0 45.5 -13t21.5 -31q0 -29 -39 -66q-43 -40 -87 -40
q-12 0 -17 1v-6q0 -33 34 -33q52 0 117 58q71 63 84 67h2q9 0 6 -14zM365 173q0 5 -6 5q-12 0 -31 -15q-7 -9 -43 -47l-2 -4l-7 -14h4q32 0 61 30q24 27 24 45zM211 162q-1 10 -21 10q-41 0 -85 -42q-27 -26 -27 -48q0 -16 16 -16q32 0 73 50q5 6 44 46z" />
    <glyph glyph-name="oslash" unicode="&#xf8;" horiz-adv-x="293" 
d="M326 153q4 -12 -12 -28q-48 -48 -93 -50q-17 -1 -35 7q-21 -28 -56 -56q-53 -41 -94 -41q-13 0 -24.5 5t-15.5 10l-20 -15q-3 -2 -6 -2q-10 0 -10 11q0 5 3 7l22 17q-6 16 -6 35q0 38 20.5 75.5t58.5 61.5t81 27t64 -12q8 -5 -28 -19q-29 -11 -61 -40.5t-41 -57.5l85 67
q20 30 46 36l37 30q3 3 7 3q9 0 9 -10q0 -3 -2 -5l-30 -24q10 -11 2 -38q-7 -13 -18 -34q7 -3 27 -6q19 0 42 17q18 15 37 30q9 5 11 -1zM206 159q4 8 -3 8l-15 -12q-1 -1 -1 -2q-7 -14 -2 -23q13 10 21 29zM156 98q-9 9 -9 24l-77 -61q2 -6 6 -9.5t11 -3.5q23 0 69 50z" />
    <glyph glyph-name="questiondown" unicode="&#xbf;" horiz-adv-x="533" 
d="M560 566q0 -15 -19 -35t-34 -20q-12 0 -23 7.5t-11 18.5q0 15 18 36.5t33 21.5q12 0 24 -8.5t12 -20.5zM479 472q0 -5 -3 -12q-26 -47 -112 -124q-111 -99 -137 -128q-67 -75 -67 -137q0 -47 57 -47q53 0 116.5 48.5t63.5 99.5q0 25 -19 29.5t-19 10.5q0 11 11.5 31
t22.5 20q23 0 43 -19t20 -42q0 -82 -101 -149q-91 -61 -178 -61q-43 0 -74 16q-39 20 -39 58q0 57 110 154q79 64 159 128q50 43 117 120q9 11 22 11q7 0 7 -7z" />
    <glyph glyph-name="exclamdown" unicode="&#xa1;" horiz-adv-x="328" 
d="M463 549q0 -13 -16 -32.5t-32 -22.5q-11 -2 -24.5 5t-14.5 19q-1 14 17 37t34 23q14 0 25 -9t11 -20zM380 436l-316 -431q-11 -16 -25 -13l-56 12q-13 3 -13 10q0 3 2 5l365 417q13 15 19 15h13q7 0 11 -5t0 -10z" />
    <glyph glyph-name="guillemotleft" unicode="&#xab;" horiz-adv-x="362" 
d="M320 318l-78 -79l32 -109q2 -7 -3 -9q-5 -1 -9 4l-76 126q-4 6 2 10l123 67q6 3 10 -1q4 -5 -1 -9zM216 318l-78 -79l33 -109q2 -7 -3 -9q-6 -1 -9 4l-77 126q-4 6 2 10l124 67q5 3 9 -1q4 -5 -1 -9z" />
    <glyph glyph-name="guillemotright" unicode="&#xbb;" horiz-adv-x="486" 
d="M416 207q3 -6 -3 -10l-123 -67q-6 -3 -10 1q-3 5 1 9l78 79l-32 109q-2 7 3 9q5 1 9 -4zM312 207q4 -6 -2 -10l-123 -67q-6 -3 -10 1q-4 5 1 9l78 79l-33 109q-2 7 4 9q5 1 9 -4z" />
    <glyph glyph-name="ellipsis" unicode="&#x2026;" horiz-adv-x="498" 
d="M405 52q1 -14 -17 -37t-34 -23q-13 0 -24.5 9t-11.5 20q0 13 16.5 32t31.5 23q11 2 24.5 -5.5t14.5 -18.5zM270 52q1 -14 -17 -37t-34 -23q-13 0 -24.5 9t-11.5 20q0 13 16.5 32t31.5 23q11 2 24.5 -5.5t14.5 -18.5zM131 52q1 -14 -17 -37t-34 -23q-14 0 -25 9t-11 20
q0 13 16.5 32t31.5 23q11 2 24.5 -5.5t14.5 -18.5z" />
    <glyph glyph-name="nonbreakingspace" unicode="&#xa0;" horiz-adv-x="200" 
 />
    <glyph glyph-name="Agrave" unicode="&#xc0;" horiz-adv-x="1192" 
d="M1345 683q0 -62 -73 -173q-23 -34 -155 -209q77 -5 77 -30q0 -17 -30 -60t-46 -43q-17 0 -46 2q-34 2 -46 2q-78 -122 -78 -197q0 -72 62 -71q1 -2 1 -5q0 -5 -5 -13t-10 -8q-38 0 -60 26t-22 66q0 79 76 202q-125 -1 -253 -6q-230 -219 -557 -219q-75 0 -120 20.5
t-45 59.5q0 95 247 168q216 64 544 93q39 45 161 209q90 120 148 170q83 70 171 70q59 0 59 -54zM1245 580q0 15 -12 25.5t-27 10.5q-63 0 -124 -48q-46 -36 -111 -120q-60 -78 -121 -157q118 9 229 10q97 132 114 158q52 80 52 121zM682 164q-270 -14 -434 -45
q-198 -38 -198 -95q0 -24 49 -35q32 -7 67 -7q300 0 516 182zM1291 783h-36l-114 61q-18 10 -18 29q0 30 30 30q19 0 39 -20z" />
    <glyph glyph-name="Atilde" unicode="&#xc3;" horiz-adv-x="1192" 
d="M1345 683q0 -62 -73 -173q-23 -34 -155 -209q77 -5 77 -30q0 -17 -30 -60t-46 -43q-17 0 -46 2q-34 2 -46 2q-78 -122 -78 -197q0 -72 62 -71q1 -2 1 -5q0 -5 -5 -13t-10 -8q-38 0 -60 26t-22 66q0 79 76 202q-125 -1 -253 -6q-230 -219 -557 -219q-75 0 -120 20.5
t-45 59.5q0 95 247 168q216 64 544 93q39 45 161 209q90 120 148 170q83 70 171 70q59 0 59 -54zM1245 580q0 15 -12 25.5t-27 10.5q-63 0 -124 -48q-46 -36 -111 -120q-60 -78 -121 -157q118 9 229 10q97 132 114 158q52 80 52 121zM682 164q-270 -14 -434 -45
q-198 -38 -198 -95q0 -24 49 -35q32 -7 67 -7q300 0 516 182zM1427 853q0 -4 -8 -15q-22 -32 -28 -38q-19 -18 -43 -18q-14 0 -45 16.5t-42 16.5q-14 0 -27 -11t-17 -11q-6 0 -6 3q0 5 11 21q36 50 78 50q17 0 42 -16.5t39 -16.5t25 12t14 12q7 0 7 -5z" />
    <glyph glyph-name="Otilde" unicode="&#xd5;" horiz-adv-x="916" 
d="M1071 575q0 -140 -141 -297q-129 -145 -321 -246.5t-344 -101.5q-119 0 -186 54q-70 56 -70 159q0 128 111 269q103 131 257.5 221.5t280.5 90.5h5q28 0 28 -18q0 -17 -16 -17h-21q-103 0 -243.5 -82t-237.5 -195q-106 -125 -106 -230q0 -149 212 -149q132 0 315 96
q176 93 301 220q134 137 134 242q0 52 -29 81.5t-80 29.5q-96 0 -278 -130q-69 -49 -216 -178q-138 -121 -170 -156q-18 -20 -54 -20q-27 0 -50 11q-29 13 -29 36q0 26 175 154q130 96 247 171q226 146 352 146q81 0 127.5 -41.5t46.5 -119.5zM1032 851q0 -5 -7 -15
q-23 -32 -29 -38q-18 -18 -43 -18q-14 0 -44.5 16.5t-41.5 16.5q-15 0 -28 -11t-17 -11q-6 0 -6 3q0 5 12 21q35 50 77 50q17 0 42 -16.5t39 -16.5t25 12t15 12q6 0 6 -5z" />
    <glyph glyph-name="OE" unicode="&#x152;" horiz-adv-x="1405" 
d="M1771 668q0 -36 -49.5 -96.5t-83.5 -60.5q-63 0 -159 35q-22 8 -167 69l-288 -85q23 -97 108 -170q68 10 128 10q39 0 62.5 -15.5t23.5 -37.5q0 -47 -77 -47q-71 0 -138 50q-130 -32 -222 -97q-105 -73 -105 -153q0 -56 57 -90q48 -29 108 -29q134 0 224 45q79 40 79 83
q6 9 16 9q14 0 20 -16q0 -63 -101 -118q-106 -58 -242 -58q-111 0 -189 43q-83 46 -94 124q-226 -133 -400 -133q-119 0 -186 54q-70 56 -70 159q0 128 111 269q103 131 257.5 221.5t280.5 90.5h5q28 0 28 -18q0 -17 -16 -17h-21q-103 0 -243.5 -82t-237.5 -195
q-106 -125 -106 -230q0 -149 212 -149q168 0 398 144q227 142 316 298q-11 23 -16 45q-72 -19 -149 -39q-10 -2 -14 -2q-8 0 -15 12.5t-7 18.5q0 7 12 11q64 16 168 43v10q0 51 36 93q-10 13 -36.5 24t-51.5 11q-96 0 -278 -130q-69 -49 -216 -178q-138 -121 -170 -156
q-18 -20 -54 -20q-27 0 -50 11q-29 13 -29 36q0 26 175 154q130 96 247 171q226 146 352 146q87 0 133 -47q57 46 136 46q68 0 262 -45l89 25q85 24 132 24q45 0 75 -19.5t30 -51.5zM1725 684q0 25 -59 25q-43 0 -82 -12q-14 -4 -71 -22q103 -21 159 -21q17 0 35 8.5
t18 21.5zM1254 638q-85 30 -131 30q-49 0 -78.5 -28t-29.5 -68q110 30 239 66zM1307 319q0 20 -41 20q-42 0 -93 -9q50 -30 102 -30q32 0 32 19zM1093 353q-27 27 -49 60q-20 -41 -52 -84q49 14 101 24z" />
    <glyph glyph-name="oe" unicode="&#x153;" horiz-adv-x="463" 
d="M499 143q-2 -9 -10 -15q-33 -30 -94 -83q-39 -30 -61 -40q-37 -18 -82 -18q-75 0 -93 57q-11 -11 -20 -18q-51 -40 -96 -40q-29 0 -49.5 19t-20.5 53q0 68 63 116q58 44 125 44q20 0 36.5 -5.5t16.5 -10.5t-4 -6q-66 -15 -113 -80q-18 -25 -18 -47q0 -21 17 -21
q21 0 61 41q1 7 4 15q-5 8 -5 18q0 14 9 30q23 40 55 40q7 0 11 -3q48 31 101 31q24 0 45.5 -13t21.5 -31q0 -29 -39 -66q-43 -40 -87 -40q-12 0 -17 1v-6q0 -33 34 -33q52 0 117 58q71 63 84 67h2q9 0 6 -14zM352 173q0 5 -6 5q-13 0 -37 -19t-39 -47l-7 -14h4q32 0 61 30
q24 27 24 45z" />
    <glyph glyph-name="endash" unicode="&#x2013;" horiz-adv-x="480" 
d="M428 153l-6 -16q-5 -15 -20 -15h-313q-15 0 -10 15l6 16q5 15 20 15h314q15 0 9 -15z" />
    <glyph glyph-name="emdash" unicode="&#x2014;" horiz-adv-x="686" 
d="M634 153l-6 -16q-5 -15 -20 -15h-519q-15 0 -10 15l6 16q5 15 20 15h520q15 0 9 -15z" />
    <glyph glyph-name="quotedblleft" unicode="&#x201c;" horiz-adv-x="284" 
d="M291 564q-17 -6 -37 -28t-20 -36q18 0 18 -25q0 -13 -16.5 -32t-31.5 -23q-11 -2 -25 5.5t-14 18.5q0 29 41 77t67 48q9 0 18 -5zM191 564q-17 -6 -37 -28t-20 -36q18 0 18 -25q0 -13 -16.5 -32t-31.5 -23q-11 -2 -25 5.5t-14 18.5q0 29 41 77t67 48q9 0 18 -5z" />
    <glyph glyph-name="quotedblright" unicode="&#x201d;" horiz-adv-x="430" 
d="M474 558q0 -29 -40.5 -77t-67.5 -48q-9 0 -18 5q17 6 37 28t20 36q-18 0 -18 25q0 13 16.5 32t31.5 23q11 2 25 -5.5t14 -18.5zM374 558q0 -29 -41 -77t-67 -48q-9 0 -18 5q17 6 37 28t20 36q-18 0 -18 25q0 13 16.5 32t31.5 23q11 2 25 -5.5t14 -18.5z" />
    <glyph glyph-name="quoteleft" unicode="&#x2018;" horiz-adv-x="193" 
d="M200 564q-17 -6 -37 -28t-20 -36q18 0 18 -25q0 -13 -16.5 -32t-31.5 -23q-11 -2 -25 5.5t-14 18.5q0 29 41 77t67 48q9 0 18 -5z" />
    <glyph glyph-name="quoteright" unicode="&#x2019;" horiz-adv-x="233" 
d="M374 558q0 -29 -41 -77t-67 -48q-9 0 -18 5q17 6 37 28t20 36q-18 0 -18 25q0 13 16.5 32t31.5 23q11 2 25 -5.5t14 -18.5z" />
    <glyph glyph-name="ydieresis" unicode="&#xff;" horiz-adv-x="408" 
d="M442 149q0 -16 -57 -62q-40 -32 -74 -54q-50 -33 -91 -42q-5 -1 -16 -4q-23 -31 -70.5 -93t-117.5 -118q-89 -72 -147 -72q-23 0 -46 15.5t-23 38.5q0 52 117 131q105 71 182 93q32 42 94 125q-41 -36 -90 -68q-66 -42 -100 -42q-41 0 -41 44q0 37 36 87q33 47 66 68
t76 21q22 0 22 -16q0 -9 -48.5 -66t-48.5 -69q0 -5 5 -5q16 0 60 29q35 23 55 41q30 32 89 85q9 6 16 6q12 0 23 -26q9 -22 9 -34q0 -15 -92 -139q38 7 121 71q80 62 84 62q7 -3 7 -7zM68 -64q-64 -28 -124 -68q-88 -59 -88 -100q0 -20 19 -20q42 0 193 188zM337 318
q1 -11 -17.5 -33.5t-30.5 -22.5q-13 0 -23.5 8.5t-10.5 19.5q0 12 15.5 30t29.5 21q10 2 23 -5t14 -18zM220 318q1 -11 -17.5 -33.5t-30.5 -22.5q-13 0 -23.5 8.5t-10.5 19.5q0 12 15.5 30t29.5 21q10 2 23 -5t14 -18z" />
    <glyph glyph-name="Ydieresis" unicode="&#x178;" horiz-adv-x="960" 
d="M1593 694q0 -45 -29 -45q-12 0 -12 11q0 4 2.5 12t2.5 13q0 21 -41 21q-33 0 -102 -44q-57 -36 -91 -68l-324 -328q-212 -211 -376 -315q-222 -140 -426 -140q-185 0 -185 99q0 98 173 151q126 39 254 39q31 0 70 -6q55 -8 55 -23q0 -19 -32.5 -61.5t-50.5 -42.5
q-17 0 -52.5 2t-52.5 2q-77 0 -180 -16q-147 -22 -147 -62q0 -42 122 -42q149 0 287 59.5t242 166.5q-75 28 -75 122q0 29 72 223l-234 -117q-144 -66 -201 -66q-72 0 -72 71q0 67 122 177q113 101 262 180q156 82 244 82q68 0 68 -72q0 -44 -20 -113q128 69 215 118
q5 3 9 3q17 0 17 -28q0 -21 -30 -36q-65 -34 -228 -118q-28 -72 -55 -144q-42 -113 -42 -147q0 -69 44 -69q24 0 225 200q133 134 265 267q140 130 247 130q60 0 60 -46zM763 635q0 36 -42 36q-57 0 -181 -74q-117 -69 -212 -153q-102 -90 -102 -131q0 -40 45 -40
q43 0 173 63q24 11 272 139q47 132 47 160zM1304 819q1 -11 -17.5 -33.5t-30.5 -22.5q-13 0 -23.5 8.5t-10.5 19.5q0 12 15.5 30t29.5 21q10 2 23 -5t14 -18zM1187 819q1 -11 -17.5 -33.5t-30.5 -22.5q-13 0 -23.5 8.5t-10.5 19.5q0 12 15.5 30t29.5 21q10 2 23 -5t14 -18z
" />
    <glyph glyph-name="currency" unicode="&#xa4;" horiz-adv-x="684" 
d="M750 535q0 -71 -74 -192q-72 -115 -102 -115q-13 0 -29.5 16t-16.5 30q0 10 25 34q20 18 39 35q134 124 134 200q0 47 -56 47q-70 0 -166 -66q-90 -63 -166 -156h145q15 0 9 -15l-6 -16q-5 -15 -20 -15h-163q-30 -42 -49 -82h173q15 0 9 -15l-6 -16q-5 -15 -20 -15h-175
q-11 -35 -11 -64q0 -102 97 -102q117 0 260 130q3 1 7 1q15 0 11 -18q-63 -60 -143 -101q-90 -46 -166 -46q-148 0 -148 129q0 34 11 71h-137q-15 0 -10 15l6 16q5 15 20 15h139q18 40 47 82h-146q-15 0 -10 15l6 16q5 15 20 15h165q86 104 199 174q118 73 209 73
q89 0 89 -80z" />
    <glyph glyph-name="guilsinglleft" unicode="&#x2039;" horiz-adv-x="270" 
d="M228 318l-78 -79l33 -109q2 -7 -3 -9q-6 -1 -9 4l-77 126q-4 6 2 10l124 67q5 3 9 -1q4 -5 -1 -9z" />
    <glyph glyph-name="guilsinglright" unicode="&#x203a;" horiz-adv-x="373" 
d="M312 207q4 -6 -2 -10l-123 -67q-6 -3 -10 1q-4 5 1 9l78 79l-33 109q-2 7 4 9q5 1 9 -4z" />
    <glyph glyph-name="daggerdbl" unicode="&#x2021;" horiz-adv-x="547" 
d="M655 505q0 -18 -11 -31t-29 -13q-17 0 -61.5 13.5t-73.5 13.5q-17 -27 -32 -62q-30 -27 -57 -61q29 0 73.5 13.5t65.5 13.5q26 0 26 -24q0 -42 -42 -42q-18 0 -62 13t-71 13q-22 -28 -67 -110q-30 -54 -90 -121q-63 -69 -104 -130h-20q19 28 91 144q38 62 105 133
q22 28 68 84q-25 0 -68 -12.5t-65 -12.5q-20 0 -20 25q0 39 41 39q21 0 61 -12.5t61 -13.5q24 38 34 65q24 20 56 58q-26 0 -69 -12.5t-64 -12.5q-20 0 -20 24q0 17 12 28.5t30 11.5q16 0 55.5 -12.5t65.5 -13.5q35 53 61 108q24 49 32 61q24 35 55 35q22 0 22 -18
q0 -22 -36 -60q-3 -5 -52 -51q-42 -40 -66 -75q28 1 76 14t62 13q27 0 27 -23z" />
    <glyph glyph-name="periodcentered" unicode="&#xb7;" horiz-adv-x="270" 
d="M199 187q1 -13 -17 -36.5t-34 -23.5q-14 0 -25 9t-11 21t16.5 31.5t31.5 22.5q11 2 24.5 -5t14.5 -19z" />
    <glyph glyph-name="periodcentered" unicode="&#x2219;" horiz-adv-x="270" 
d="M199 187q1 -13 -17 -36.5t-34 -23.5q-14 0 -25 9t-11 21t16.5 31.5t31.5 22.5q11 2 24.5 -5t14.5 -19z" />
    <glyph glyph-name="quotesinglbase" unicode="&#x201a;" horiz-adv-x="203" 
d="M131 52q0 -29 -41 -77t-67 -48q-9 0 -18 5q17 6 37 28t20 36q-18 0 -18 25q0 13 16.5 32t31.5 23q11 2 25 -5.5t14 -18.5z" />
    <glyph glyph-name="quotedblbase" unicode="&#x201e;" horiz-adv-x="284" 
d="M231 52q0 -29 -41 -77t-67 -48q-9 0 -18 5q17 6 37 28t20 36q-18 0 -18 25q0 13 16.5 32t31.5 23q11 2 25 -5.5t14 -18.5zM131 52q0 -29 -41 -77t-67 -48q-9 0 -18 5q17 6 37 28t20 36q-18 0 -18 25q0 13 16.5 32t31.5 23q11 2 25 -5.5t14 -18.5z" />
    <glyph glyph-name="perthousand" unicode="&#x2030;" horiz-adv-x="1167" 
d="M1160 278q0 -75 -107 -184.5t-183 -109.5q-37 0 -59 27t-22 75q0 103 117 192q103 78 185 78q69 0 69 -78zM822 278q0 -75 -107.5 -184.5t-182.5 -109.5q-38 0 -59.5 27t-21.5 75q0 103 117 192q103 78 185 78q69 0 69 -78zM782 589l-529 -580q-14 -15 -20 -15h-13
q-12 0 -12 10q0 3 2 5l383 475q-51 -33 -96 -41q-48 -73 -121 -132q-78 -62 -130 -62q-38 0 -59.5 27t-21.5 75q0 103 117 192q103 78 185 78q69 0 69 -78q0 -27 -18 -63q44 18 105 65q49 37 67 58q13 15 25 13l56 -12q13 -3 13 -10q0 -3 -2 -5zM1125 308q0 26 -27 26
q-69 0 -166 -123q-93 -117 -93 -180q0 -22 33 -22q75 0 167 124q86 113 86 175zM501 573q0 26 -28 26q-35 0 -82 -37q-5 -8 -5 -16q0 -70 76 -76q39 68 39 103zM787 308q0 26 -28 26q-68 0 -166 -123q-93 -117 -93 -180q0 -22 33 -22q75 0 168 124q86 113 86 175zM446 443
q-84 12 -92 85q-55 -55 -97.5 -125.5t-42.5 -106.5q0 -22 33 -22q47 0 105 54q50 45 94 115z" />
    <glyph glyph-name="Acircumflex" unicode="&#xc2;" horiz-adv-x="1192" 
d="M1345 683q0 -62 -73 -173q-23 -34 -155 -209q77 -5 77 -30q0 -17 -30 -60t-46 -43q-17 0 -46 2q-34 2 -46 2q-78 -122 -78 -197q0 -72 62 -71q1 -2 1 -5q0 -5 -5 -13t-10 -8q-38 0 -60 26t-22 66q0 79 76 202q-125 -1 -253 -6q-230 -219 -557 -219q-75 0 -120 20.5
t-45 59.5q0 95 247 168q216 64 544 93q39 45 161 209q90 120 148 170q83 70 171 70q59 0 59 -54zM1245 580q0 15 -12 25.5t-27 10.5q-63 0 -124 -48q-46 -36 -111 -120q-60 -78 -121 -157q118 9 229 10q97 132 114 158q52 80 52 121zM682 164q-270 -14 -434 -45
q-198 -38 -198 -95q0 -24 49 -35q32 -7 67 -7q300 0 516 182zM1393 780l-23 -1q-11 0 -16.5 2t-14.5 15l-32 45l-51 -45q-5 -5 -17 -13q-11 -4 -30 -4h-24l75 81q26 28 52 28q31 0 44 -28z" />
    <glyph glyph-name="Ecircumflex" unicode="&#xca;" horiz-adv-x="760" 
d="M1126 668q0 -36 -49.5 -96.5t-83.5 -60.5q-63 0 -159 35q-22 8 -167 69l-288 -85q23 -97 108 -170q68 10 128 10q39 0 62.5 -15.5t23.5 -37.5q0 -47 -77 -47q-71 0 -138 50q-130 -32 -222 -97q-105 -73 -105 -153q0 -60 51.5 -98.5t126.5 -38.5q122 0 212 51q82 47 82 95
q6 9 14 9q12 0 18 -16q0 -63 -101 -118q-106 -58 -242 -58q-120 0 -199 49q-86 53 -86 142q0 92 131 168q115 67 282 98q-77 77 -99 167q-72 -19 -149 -39q-10 -2 -14 -2q-8 0 -15 12.5t-7 18.5q0 7 12 11q64 16 168 43v10q0 66 57 113.5t137 47.5q68 0 262 -45l89 25
q85 24 132 24q45 0 75 -19.5t30 -51.5zM1080 684q0 25 -59 25q-43 0 -82 -12q-14 -4 -71 -22q103 -21 159 -21q17 0 35 8.5t18 21.5zM609 638q-85 30 -131 30q-49 0 -78.5 -28t-29.5 -68q110 30 239 66zM662 319q0 20 -41 20q-42 0 -93 -9q50 -30 102 -30q32 0 32 19z
M896 775l-23 -1q-11 0 -16.5 2t-14.5 15l-32 45l-51 -45q-5 -5 -17 -13q-11 -4 -30 -4h-24l75 81q26 28 52 28q31 0 44 -28z" />
    <glyph glyph-name="Aacute" unicode="&#xc1;" horiz-adv-x="1192" 
d="M1345 683q0 -62 -73 -173q-23 -34 -155 -209q77 -5 77 -30q0 -17 -30 -60t-46 -43q-17 0 -46 2q-34 2 -46 2q-78 -122 -78 -197q0 -72 62 -71q1 -2 1 -5q0 -5 -5 -13t-10 -8q-38 0 -60 26t-22 66q0 79 76 202q-125 -1 -253 -6q-230 -219 -557 -219q-75 0 -120 20.5
t-45 59.5q0 95 247 168q216 64 544 93q39 45 161 209q90 120 148 170q83 70 171 70q59 0 59 -54zM1245 580q0 15 -12 25.5t-27 10.5q-63 0 -124 -48q-46 -36 -111 -120q-60 -78 -121 -157q118 9 229 10q97 132 114 158q52 80 52 121zM682 164q-270 -14 -434 -45
q-198 -38 -198 -95q0 -24 49 -35q32 -7 67 -7q300 0 516 182zM1435 873q0 -19 -18 -29l-114 -61h-36l99 100q20 20 39 20q30 0 30 -30z" />
    <glyph glyph-name="Edieresis" unicode="&#xcb;" horiz-adv-x="760" 
d="M1126 668q0 -36 -49.5 -96.5t-83.5 -60.5q-63 0 -159 35q-22 8 -167 69l-288 -85q23 -97 108 -170q68 10 128 10q39 0 62.5 -15.5t23.5 -37.5q0 -47 -77 -47q-71 0 -138 50q-130 -32 -222 -97q-105 -73 -105 -153q0 -60 51.5 -98.5t126.5 -38.5q122 0 212 51q82 47 82 95
q6 9 14 9q12 0 18 -16q0 -63 -101 -118q-106 -58 -242 -58q-120 0 -199 49q-86 53 -86 142q0 92 131 168q115 67 282 98q-77 77 -99 167q-72 -19 -149 -39q-10 -2 -14 -2q-8 0 -15 12.5t-7 18.5q0 7 12 11q64 16 168 43v10q0 66 57 113.5t137 47.5q68 0 262 -45l89 25
q85 24 132 24q45 0 75 -19.5t30 -51.5zM1080 684q0 25 -59 25q-43 0 -82 -12q-14 -4 -71 -22q103 -21 159 -21q17 0 35 8.5t18 21.5zM609 638q-85 30 -131 30q-49 0 -78.5 -28t-29.5 -68q110 30 239 66zM662 319q0 20 -41 20q-42 0 -93 -9q50 -30 102 -30q32 0 32 19z
M902 841q1 -11 -17.5 -33.5t-30.5 -22.5q-13 0 -23.5 8.5t-10.5 19.5q0 12 15.5 30t29.5 21q10 2 23 -5t14 -18zM785 841q1 -11 -17.5 -33.5t-30.5 -22.5q-13 0 -23.5 8.5t-10.5 19.5q0 12 15.5 30t29.5 21q10 2 23 -5t14 -18z" />
    <glyph glyph-name="Egrave" unicode="&#xc8;" horiz-adv-x="760" 
d="M1126 668q0 -36 -49.5 -96.5t-83.5 -60.5q-63 0 -159 35q-22 8 -167 69l-288 -85q23 -97 108 -170q68 10 128 10q39 0 62.5 -15.5t23.5 -37.5q0 -47 -77 -47q-71 0 -138 50q-130 -32 -222 -97q-105 -73 -105 -153q0 -60 51.5 -98.5t126.5 -38.5q122 0 212 51q82 47 82 95
q6 9 14 9q12 0 18 -16q0 -63 -101 -118q-106 -58 -242 -58q-120 0 -199 49q-86 53 -86 142q0 92 131 168q115 67 282 98q-77 77 -99 167q-72 -19 -149 -39q-10 -2 -14 -2q-8 0 -15 12.5t-7 18.5q0 7 12 11q64 16 168 43v10q0 66 57 113.5t137 47.5q68 0 262 -45l89 25
q85 24 132 24q45 0 75 -19.5t30 -51.5zM1080 684q0 25 -59 25q-43 0 -82 -12q-14 -4 -71 -22q103 -21 159 -21q17 0 35 8.5t18 21.5zM609 638q-85 30 -131 30q-49 0 -78.5 -28t-29.5 -68q110 30 239 66zM662 319q0 20 -41 20q-42 0 -93 -9q50 -30 102 -30q32 0 32 19z
M808 775h-36l-114 61q-18 10 -18 29q0 30 30 30q19 0 39 -20z" />
    <glyph glyph-name="Iacute" unicode="&#xcd;" horiz-adv-x="824" 
d="M1003 638q0 -109 -81 -246q-83 -141 -216 -251q2 -2 21 -20q15 -14 15 -22q0 -17 -15 -17q-11 0 -23.5 11.5t-25.5 24.5q-223 -171 -470 -171q-90 0 -140.5 28.5t-50.5 75.5q0 87 143 140q123 45 272 45q49 0 88 -9t39 -20q0 -24 -30 -64t-46 -40q-7 0 -43 2t-63 2
q-120 0 -218 -22q-104 -24 -104 -56q0 -42 125 -42q221 0 461 194q-18 46 -18 105q0 166 92.5 307.5t200.5 141.5q87 0 87 -97zM970 640q0 57 -50 57q-74 0 -160 -141q-89 -146 -89 -282q0 -34 5 -64q126 110 210 234t84 196zM1091 865q0 -19 -18 -29l-114 -61h-36l99 100
q20 20 39 20q30 0 30 -30z" />
    <glyph glyph-name="Icircumflex" unicode="&#xce;" horiz-adv-x="824" 
d="M1003 638q0 -109 -81 -246q-83 -141 -216 -251q2 -2 21 -20q15 -14 15 -22q0 -17 -15 -17q-11 0 -23.5 11.5t-25.5 24.5q-223 -171 -470 -171q-90 0 -140.5 28.5t-50.5 75.5q0 87 143 140q123 45 272 45q49 0 88 -9t39 -20q0 -24 -30 -64t-46 -40q-7 0 -43 2t-63 2
q-120 0 -218 -22q-104 -24 -104 -56q0 -42 125 -42q221 0 461 194q-18 46 -18 105q0 166 92.5 307.5t200.5 141.5q87 0 87 -97zM970 640q0 57 -50 57q-74 0 -160 -141q-89 -146 -89 -282q0 -34 5 -64q126 110 210 234t84 196zM1018 772l-23 -1q-11 0 -16.5 2t-14.5 15
l-32 45l-51 -45q-5 -5 -17 -13q-11 -4 -30 -4h-24l75 81q26 28 52 28q31 0 44 -28z" />
    <glyph glyph-name="Idieresis" unicode="&#xcf;" horiz-adv-x="824" 
d="M1003 638q0 -109 -81 -246q-83 -141 -216 -251q2 -2 21 -20q15 -14 15 -22q0 -17 -15 -17q-11 0 -23.5 11.5t-25.5 24.5q-223 -171 -470 -171q-90 0 -140.5 28.5t-50.5 75.5q0 87 143 140q123 45 272 45q49 0 88 -9t39 -20q0 -24 -30 -64t-46 -40q-7 0 -43 2t-63 2
q-120 0 -218 -22q-104 -24 -104 -56q0 -42 125 -42q221 0 461 194q-18 46 -18 105q0 166 92.5 307.5t200.5 141.5q87 0 87 -97zM970 640q0 57 -50 57q-74 0 -160 -141q-89 -146 -89 -282q0 -34 5 -64q126 110 210 234t84 196zM1045 841q1 -11 -17.5 -33.5t-30.5 -22.5
q-13 0 -23.5 8.5t-10.5 19.5q0 12 15.5 30t29.5 21q10 2 23 -5t14 -18zM928 841q1 -11 -17.5 -33.5t-30.5 -22.5q-13 0 -23.5 8.5t-10.5 19.5q0 12 15.5 30t29.5 21q10 2 23 -5t14 -18z" />
    <glyph glyph-name="Igrave" unicode="&#xcc;" horiz-adv-x="824" 
d="M1003 638q0 -109 -81 -246q-83 -141 -216 -251q2 -2 21 -20q15 -14 15 -22q0 -17 -15 -17q-11 0 -23.5 11.5t-25.5 24.5q-223 -171 -470 -171q-90 0 -140.5 28.5t-50.5 75.5q0 87 143 140q123 45 272 45q49 0 88 -9t39 -20q0 -24 -30 -64t-46 -40q-7 0 -43 2t-63 2
q-120 0 -218 -22q-104 -24 -104 -56q0 -42 125 -42q221 0 461 194q-18 46 -18 105q0 166 92.5 307.5t200.5 141.5q87 0 87 -97zM970 640q0 57 -50 57q-74 0 -160 -141q-89 -146 -89 -282q0 -34 5 -64q126 110 210 234t84 196zM978 775h-36l-114 61q-18 10 -18 29q0 30 30 30
q19 0 39 -20z" />
    <glyph glyph-name="Oacute" unicode="&#xd3;" horiz-adv-x="916" 
d="M1071 575q0 -140 -141 -297q-129 -145 -321 -246.5t-344 -101.5q-119 0 -186 54q-70 56 -70 159q0 128 111 269q103 131 257.5 221.5t280.5 90.5h5q28 0 28 -18q0 -17 -16 -17h-21q-103 0 -243.5 -82t-237.5 -195q-106 -125 -106 -230q0 -149 212 -149q132 0 315 96
q176 93 301 220q134 137 134 242q0 52 -29 81.5t-80 29.5q-96 0 -278 -130q-69 -49 -216 -178q-138 -121 -170 -156q-18 -20 -54 -20q-27 0 -50 11q-29 13 -29 36q0 26 175 154q130 96 247 171q226 146 352 146q81 0 127.5 -41.5t46.5 -119.5zM1085 870q0 -19 -18 -29
l-114 -61h-36l99 100q20 20 39 20q30 0 30 -30z" />
    <glyph glyph-name="Ocircumflex" unicode="&#xd4;" horiz-adv-x="916" 
d="M1071 575q0 -140 -141 -297q-129 -145 -321 -246.5t-344 -101.5q-119 0 -186 54q-70 56 -70 159q0 128 111 269q103 131 257.5 221.5t280.5 90.5h5q28 0 28 -18q0 -17 -16 -17h-21q-103 0 -243.5 -82t-237.5 -195q-106 -125 -106 -230q0 -149 212 -149q132 0 315 96
q176 93 301 220q134 137 134 242q0 52 -29 81.5t-80 29.5q-96 0 -278 -130q-69 -49 -216 -178q-138 -121 -170 -156q-18 -20 -54 -20q-27 0 -50 11q-29 13 -29 36q0 26 175 154q130 96 247 171q226 146 352 146q81 0 127.5 -41.5t46.5 -119.5zM988 780l-23 -1q-11 0 -16.5 2
t-14.5 15l-32 45l-51 -45q-5 -5 -17 -13q-11 -4 -30 -4h-24l75 81q26 28 52 28q31 0 44 -28z" />
    <glyph glyph-name="Ograve" unicode="&#xd2;" horiz-adv-x="916" 
d="M1071 575q0 -140 -141 -297q-129 -145 -321 -246.5t-344 -101.5q-119 0 -186 54q-70 56 -70 159q0 128 111 269q103 131 257.5 221.5t280.5 90.5h5q28 0 28 -18q0 -17 -16 -17h-21q-103 0 -243.5 -82t-237.5 -195q-106 -125 -106 -230q0 -149 212 -149q132 0 315 96
q176 93 301 220q134 137 134 242q0 52 -29 81.5t-80 29.5q-96 0 -278 -130q-69 -49 -216 -178q-138 -121 -170 -156q-18 -20 -54 -20q-27 0 -50 11q-29 13 -29 36q0 26 175 154q130 96 247 171q226 146 352 146q81 0 127.5 -41.5t46.5 -119.5zM968 783h-36l-114 61
q-18 10 -18 29q0 30 30 30q19 0 39 -20z" />
    <glyph glyph-name="Uacute" unicode="&#xda;" horiz-adv-x="744" 
d="M1035 735q0 -104 -119 -260q-111 -145 -277 -275q-42 -77 -56 -106q-18 -43 -58 -126q-8 -15 -20 -15q-29 0 -61 20q-35 22 -35 48q0 9 14 37q-135 -70 -228 -70q-67 0 -104.5 34t-37.5 92q0 176 311 515q73 81 93 88q14 6 40 6q32 0 65 -8q41 -10 41 -23q0 -4 -80 -82
q-108 -105 -183 -186q-215 -233 -215 -314q0 -88 91 -88q93 0 230 78q88 154 262 389q203 275 295 275q32 0 32 -29zM1004 714q0 17 -19 17q-51 0 -309 -463q139 120 231 244q97 129 97 202zM901 853q0 -19 -18 -29l-114 -61h-36l99 100q20 20 39 20q30 0 30 -30z" />
    <glyph glyph-name="Ucircumflex" unicode="&#xdb;" horiz-adv-x="744" 
d="M1035 735q0 -104 -119 -260q-111 -145 -277 -275q-42 -77 -56 -106q-18 -43 -58 -126q-8 -15 -20 -15q-29 0 -61 20q-35 22 -35 48q0 9 14 37q-135 -70 -228 -70q-67 0 -104.5 34t-37.5 92q0 176 311 515q73 81 93 88q14 6 40 6q32 0 65 -8q41 -10 41 -23q0 -4 -80 -82
q-108 -105 -183 -186q-215 -233 -215 -314q0 -88 91 -88q93 0 230 78q88 154 262 389q203 275 295 275q32 0 32 -29zM1004 714q0 17 -19 17q-51 0 -309 -463q139 120 231 244q97 129 97 202zM873 763l-23 -1q-11 0 -16.5 2t-14.5 15l-32 45l-51 -45q-5 -5 -17 -13
q-11 -4 -30 -4h-24l75 81q26 28 52 28q31 0 44 -28z" />
    <glyph glyph-name="Ugrave" unicode="&#xd9;" horiz-adv-x="744" 
d="M1035 735q0 -104 -119 -260q-111 -145 -277 -275q-42 -77 -56 -106q-18 -43 -58 -126q-8 -15 -20 -15q-29 0 -61 20q-35 22 -35 48q0 9 14 37q-135 -70 -228 -70q-67 0 -104.5 34t-37.5 92q0 176 311 515q73 81 93 88q14 6 40 6q32 0 65 -8q41 -10 41 -23q0 -4 -80 -82
q-108 -105 -183 -186q-215 -233 -215 -314q0 -88 91 -88q93 0 230 78q88 154 262 389q203 275 295 275q32 0 32 -29zM1004 714q0 17 -19 17q-51 0 -309 -463q139 120 231 244q97 129 97 202zM791 765h-36l-114 61q-18 10 -18 29q0 30 30 30q19 0 39 -20z" />
    <glyph glyph-name="circumflex" unicode="&#x2c6;" horiz-adv-x="321" 
d="M257 661l-23 -1q-11 0 -16.5 2t-14.5 15l-32 45l-51 -45q-5 -5 -17 -13q-11 -4 -30 -4h-24l75 81q26 28 52 28q31 0 44 -28z" />
    <glyph glyph-name="tilde" unicode="&#x2dc;" horiz-adv-x="321" 
d="M261 762q0 -4 -7 -15q-22 -32 -29 -38q-18 -18 -43 -18q-14 0 -44.5 16.5t-41.5 16.5q-14 0 -27.5 -11t-16.5 -11q-7 0 -7 4t12 20q36 50 77 50q18 0 43 -16.5t39 -16.5t24.5 12t14.5 12q6 0 6 -5z" />
    <glyph glyph-name="macron" unicode="&#xaf;" horiz-adv-x="357" 
d="M303 726h-237v43h237v-43z" />
    <glyph glyph-name="macron" unicode="&#x2c9;" horiz-adv-x="357" 
d="M303 726h-237v43h237v-43z" />
    <glyph glyph-name="cedilla" unicode="&#xb8;" horiz-adv-x="224" 
d="M180 -61q0 -45 -66 -100q-35 -29 -65 -29q-28 0 -28 22q0 31 32 31q9 0 17 -7t12 -7q19 0 36.5 19.5t17.5 37.5q0 13 -16 13t-36 -12q-7 -5 -14 -10.5t-12 -3.5q-7 3 1 13l59 94h29l-22 -44q23 2 29 2q26 0 26 -19z" />
    <glyph glyph-name="Scaron" unicode="&#x160;" horiz-adv-x="785" 
d="M1151 668q0 -36 -49.5 -96.5t-83.5 -60.5q-63 0 -159 35q-22 8 -167 69l-289 -86q18 -49 93 -137q99 -116 123 -151q61 -90 61 -163q0 -109 -156 -179q-133 -60 -286 -60q-86 0 -141 29q-59 30 -59 83q0 81 106 136q95 50 211 50q35 0 76 -7q38 -6 46.5 -11.5t8.5 -15.5
q0 -12 -8 -12q-7 0 -14 2q-46 13 -104 13q-105 0 -192.5 -43t-87.5 -94q0 -61 92 -61q132 0 263 70q142 76 142 171q0 50 -87 169q-96 132 -114 203q-46 -14 -57.5 -16.5t-15.5 -2.5q-8 0 -15 12.5t-7 18.5q0 7 12 11q18 5 76 20v10q0 66 57 113.5t137 47.5q68 0 262 -45
l89 25q85 24 132 24q45 0 75 -19.5t30 -51.5zM1105 684q0 25 -59 25q-43 0 -82 -12q-14 -4 -71 -22q103 -21 159 -21q17 0 35 8.5t18 21.5zM634 638q-85 30 -131 30q-49 0 -78.5 -28t-29.5 -68q110 30 239 66zM947 883l-75 -81q-26 -28 -52 -28q-31 0 -44 28l-37 80l23 1
q11 0 16.5 -2t14.5 -15l32 -45l51 45q5 5 17 13q11 4 30 4h24z" />
    <glyph glyph-name="scaron" unicode="&#x161;" horiz-adv-x="281" 
d="M316 149q-3 -15 -24 -33l-70 -62q-55 -44 -95 -53q-30 -16 -67 -16q-44 0 -72 15t-28 41q0 33 33 33q21 0 21 -24q0 -3 -1.5 -12t-1.5 -11q0 -5 8 -5q18 0 37.5 29t19.5 62q0 26 -14 42q-2 2 -3 2q-26 -22 -57 -49q-2 -2 -4 -2q-14 0 -14 17q0 2 2 4q23 18 61 51v1
q0 31 31 56t64 25q16 0 16 -18q0 -9 -9.5 -26.5t-9.5 -30.5q0 -12 20 -43.5t20 -59.5q0 -19 -7 -33q13 8 48 38q28 24 79 65q8 6 13 5t4 -8zM269 407l-75 -81q-26 -28 -52 -28q-31 0 -44 28l-37 80l23 1q11 0 16.5 -2t14.5 -15l32 -45l51 45q5 5 17 13q11 4 30 4h24z" />
    <glyph glyph-name="Eth" unicode="&#xd0;" horiz-adv-x="1483" 
d="M1687 559q0 -148 -191 -290q-162 -120 -408 -203q-226 -77 -374 -77q-141 0 -141 64q7 8 19 8t16 -6q0 -26 74 -26q130 0 356 75q247 81 412 191q197 132 197 260q0 93 -202 93q-187 0 -479 -66q-59 -79 -210 -271h157q15 0 15 -15v-27q0 -15 -15 -15h-202
q-127 -160 -196 -245q-16 -20 -43 -19q-38 2 -38 32q0 9 5 16q15 20 183 216h-145q-15 0 -15 15v27q0 15 15 15h194l206 241q5 6 10 11q-313 -77 -572 -181.5t-259 -155.5q0 -16 -13 -16q-17 0 -17 20q0 136 285 262q228 101 578 174q302 63 455 63q154 0 243 -39
q100 -44 100 -131z" />
    <glyph glyph-name="eth" unicode="&#xf0;" horiz-adv-x="302" 
d="M335 153q4 -12 -12 -28q-50 -50 -98 -50q-16 0 -30 7q-21 -28 -56 -56q-51 -40 -96 -40q-29 0 -49.5 19t-20.5 53q0 65 59 114q54 45 116 45h7q30 42 30 112q0 36 -9 58l-46 -32l-20 24l54 37q-17 27 -33 32l-24 6t-12 12q0 11 11.5 24.5t24.5 13.5q32 0 69 -63l49 34
l20 -23l-54 -38q28 -61 28 -133q0 -69 -33 -85q-1 -1 -26 -10q-50 -19 -87 -70q-18 -25 -18 -47q0 -21 17 -21q25 0 69 50q-9 11 -9 24q0 21 21 46t42 25t21 -25q0 -27 -22 -55q15 -6 27 -6h1q19 0 41 18q36 29 37 29q9 5 11 -1zM215 159q4 8 -3 8q-6 0 -14.5 -14t-3.5 -23
q13 10 21 29z" />
    <glyph glyph-name="Yacute" unicode="&#xdd;" horiz-adv-x="960" 
d="M1593 694q0 -45 -29 -45q-12 0 -12 11q0 4 2.5 12t2.5 13q0 21 -41 21q-33 0 -102 -44q-57 -36 -91 -68l-324 -328q-212 -211 -376 -315q-222 -140 -426 -140q-185 0 -185 99q0 98 173 151q126 39 254 39q31 0 70 -6q55 -8 55 -23q0 -19 -32.5 -61.5t-50.5 -42.5
q-17 0 -52.5 2t-52.5 2q-77 0 -180 -16q-147 -22 -147 -62q0 -42 122 -42q149 0 287 59.5t242 166.5q-75 28 -75 122q0 29 72 223l-234 -117q-144 -66 -201 -66q-72 0 -72 71q0 67 122 177q113 101 262 180q156 82 244 82q68 0 68 -72q0 -44 -20 -113q128 69 215 118
q5 3 9 3q17 0 17 -28q0 -21 -30 -36q-65 -34 -228 -118q-28 -72 -55 -144q-42 -113 -42 -147q0 -69 44 -69q24 0 225 200q133 134 265 267q140 130 247 130q60 0 60 -46zM763 635q0 36 -42 36q-57 0 -181 -74q-117 -69 -212 -153q-102 -90 -102 -131q0 -40 45 -40
q43 0 173 63q24 11 272 139q47 132 47 160zM1291 839q0 -19 -18 -29l-114 -61h-36l99 100q20 20 39 20q30 0 30 -30z" />
    <glyph glyph-name="yacute" unicode="&#xfd;" horiz-adv-x="408" 
d="M442 149q0 -16 -57 -62q-40 -32 -74 -54q-50 -33 -91 -42q-5 -1 -16 -4q-23 -31 -70.5 -93t-117.5 -118q-89 -72 -147 -72q-23 0 -46 15.5t-23 38.5q0 52 117 131q105 71 182 93q32 42 94 125q-41 -36 -90 -68q-66 -42 -100 -42q-41 0 -41 44q0 37 36 87q33 47 66 68
t76 21q22 0 22 -16q0 -9 -48.5 -66t-48.5 -69q0 -5 5 -5q16 0 60 29q35 23 55 41q30 32 89 85q9 6 16 6q12 0 23 -26q9 -22 9 -34q0 -15 -92 -139q38 7 121 71q80 62 84 62q7 -3 7 -7zM68 -64q-64 -28 -124 -68q-88 -59 -88 -100q0 -20 19 -20q42 0 193 188zM377 356
q0 -19 -18 -29l-114 -61h-36l99 100q20 20 39 20q30 0 30 -30z" />
    <glyph glyph-name="Thorn" unicode="&#xde;" horiz-adv-x="1717" 
d="M1687 509q0 -139 -374 -288q-328 -130 -663 -174q-84 -116 -115 -154q-16 -20 -43 -19q-38 2 -38 32q0 9 5 16q9 12 90 115q-25 -1 -47 -1q-111 0 -111 63q7 8 19 8t16 -6q0 -30 75 -30q34 0 78 4l317 404q-239 -57 -481 -139q-359 -121 -359 -189q0 -16 -13 -16
q-17 0 -17 20q0 151 405 306q298 114 578 162q49 63 104 134q15 19 29 19q10 0 10 -11q0 -8 -7 -18.5t-80 -114.5q153 22 279 22q151 0 241 -33q102 -38 102 -112zM1647 507q0 64 -170 64q-173 0 -507 -75q-170 -242 -289 -407q309 52 623 179q343 138 343 239z" />
    <glyph glyph-name="thorn" unicode="&#xfe;" horiz-adv-x="350" 
d="M385 148q-3 -12 -24 -32q-66 -62 -94 -80q-68 -44 -109 -44q-15 0 -24 13q-38 -18 -69 -18q-70 0 -70 60q-144 -156 -244 -325l-5 -1q-10 0 -22.5 15t-12.5 26q0 53 258 344t319 311q9 3 33 3q35 0 38 -12q0 -1 -92 -90.5t-117 -112.5q29 13 60 13q24 0 40.5 -14
t16.5 -38q0 -61 -74 -123q7 -6 10 -6q27 0 86 50q31 27 78 64q9 6 13 6q5 0 5 -6v-3zM191 174q0 15 -15 15q-19 0 -81.5 -63.5t-62.5 -84.5q0 -8 10 -8q25 0 87 57.5t62 83.5z" />
    <glyph glyph-name="Lslash" unicode="&#x141;" horiz-adv-x="972" 
d="M1137 670q0 -92 -89 -214q-81 -108 -193 -191t-180 -83q-15 0 -15 17q0 10 8 15q67 0 174 82q103 78 179 182q83 112 83 188q0 41 -53 41q-67 0 -170 -73q-79 -57 -203 -176l147 45v-36l-201 -61q-162 -159 -167 -164q-94 -90 -161 -143q47 -10 207 -65q119 -41 195 -41
q58 0 80 4q46 9 79 42q5 5 15 5q15 0 15 -9q0 -3 -3 -7q-36 -53 -97 -103q-74 -62 -124 -62q-62 0 -200 78q-165 93 -228 113q-94 -62 -158 -62q-29 0 -47.5 13.5t-18.5 37.5q0 28 35 48q40 24 115 24q39 0 78 -5q35 30 254 256l-165 -50v36l215 65q149 149 256 223
q143 99 253 99q85 0 85 -69zM187 67q-34 6 -68 6q-54 0 -54 -26q0 -21 29 -21q37 0 93 41z" />
    <glyph glyph-name="lslash" unicode="&#x142;" horiz-adv-x="268" 
d="M496 395l-125 -38q-25 -23 -108 -90q-90 -73 -172 -126q-23 -43 -23 -67q0 -30 34 -30t77 28q45 34 107 80q9 7 13 3q3 -3 3 -9q0 -9 -8 -17q-49 -49 -110 -92q-64 -45 -119 -45q-35 0 -57.5 21.5t-22.5 56.5q0 71 96 199l-82 -25v36l121 37q63 73 141 127q83 57 135 57
q50 0 50 -38q0 -22 -26 -55l76 23v-36zM403 452q-4 4 -17 -3q-38 -19 -109 -85l80 25q54 55 46 63zM301 336l-78 -24q-53 -55 -86 -102q85 56 143 107q11 9 21 19z" />
    <glyph glyph-name="Zcaron" unicode="&#x17d;" horiz-adv-x="963" 
d="M1101 651q0 -120 -342 -139q-63 -54 -235 -213q-146 -135 -228 -200q47 -10 207 -65q119 -41 195 -41q58 0 80 4q46 9 79 42q5 5 15 5q15 0 15 -9q0 -3 -3 -7q-36 -53 -97 -103q-74 -62 -124 -62q-62 0 -200 78q-165 93 -228 113q-94 -62 -158 -62q-29 0 -47.5 13.5
t-18.5 37.5q0 28 35 48q40 24 115 24q39 0 78 -5q50 41 204 181t249 219q-24 -1 -49 -1q-156 0 -286 24q-115 22 -164 52q-21 13 -21 67q0 36 10 64.5t26 28.5q4 0 9 -3q213 -126 600 -136q144 103 216 103q32 0 50 -17t18 -41zM1073 649q0 28 -41 28q-54 0 -154 -71
q195 1 195 43zM187 67q-34 6 -68 6q-54 0 -54 -26q0 -21 29 -21q37 0 93 41zM830 850l-75 -81q-26 -28 -52 -28q-31 0 -44 28l-37 80l23 1q11 0 16.5 -2t14.5 -15l32 -45l51 45q5 5 17 13q11 4 30 4h24z" />
    <glyph glyph-name="zcaron" unicode="&#x17e;" horiz-adv-x="328" 
d="M363 149q0 -16 -57 -62q-40 -33 -73 -54q-26 -17 -48 -27q-25 -80 -159 -191t-212 -111q-23 0 -46 15.5t-23 38.5q0 52 136 134q114 68 192 90q8 12 8 19q0 8 -13 8q-14 0 -43.5 -9t-32.5 -9q-6 0 -11 11t-5 21q0 3 1.5 7.5t106.5 63.5q99 56 116 63q-28 -7 -90 -7
q-17 0 -47 10q-3 -2 -69 -60q-7 -6 -15 -6q-14 0 -14 9q0 7 8 13q127 103 131 103q5 0 24 -7t42 -7q13 0 46 7t38 7q10 0 24 -12q15 -15 15 -31q0 -11 -100 -62q-65 -32 -131 -65l2 -4q61 20 83 20q36 0 42 -25q20 10 95 64q71 52 73 52q6 -3 6 -7zM46 -66
q-245 -107 -245 -166q0 -20 19 -20q36 0 122 75q80 69 104 111zM328 378l-75 -81q-26 -28 -52 -28q-31 0 -44 28l-37 80l23 1q11 0 16.5 -2t14.5 -15l32 -45l51 45q5 5 17 13q11 4 30 4h24z" />
    <glyph glyph-name="fi" unicode="&#xf001;" horiz-adv-x="430" 
d="M466 339q2 -18 -25.5 -51t-45.5 -33q-20 0 -35.5 12.5t-15.5 28.5q0 18 23 45t44 32q16 3 35 -7t20 -27zM465 149q-2 -15 -24 -33l-54 -48q-42 -36 -76 -54q-48 -25 -88 -25q-53 0 -53 42q0 4 1 8q-54 -41 -81 -40q-32 -87 -96 -171q-82 -105 -153 -105q-52 0 -52 50
q0 62 81 176q6 9 126 161q-3 6 -3 15q0 31 25.5 58t56.5 27q101 119 201 210q81 74 95 75q39 3 33 3q39 0 51 -5q8 -2 8 -8q0 -7 -13 -16q-138 -97 -319 -305q-6 -71 -26 -125q2 -1 6 -1q23 0 55 28l19 17q12 26 30 49q59 78 80 83q13 3 33 3q41 0 54 -6q4 -2 4 -4
q0 -4 -36 -41q-21 -21 -43 -42q-51 -57 -51 -79q0 -14 12 -14q36 0 101 55q28 24 79 65q9 6 13 5q5 -1 4 -8zM60 6q-26 10 -32 31q-161 -203 -161 -239q0 -16 17 -16q41 0 109 100q60 88 67 124z" />
    <glyph glyph-name="fl" unicode="&#xf002;" horiz-adv-x="522" 
d="M700 463q0 -35 -66 -98q-28 -26 -117.5 -98.5t-171.5 -125.5q-23 -43 -23 -67q0 -30 34 -30t77 28q45 34 107 80q9 7 13 3q3 -3 3 -9q0 -9 -8 -17q-49 -49 -110 -92q-64 -45 -119 -45q-35 0 -57.5 21.5t-22.5 56.5q0 13 3 28q-18 -16 -65 -54q-58 -46 -87 -45
q-32 -87 -96 -171q-82 -105 -153 -105q-52 0 -52 50q0 62 81 176q6 9 126 161q-3 6 -3 15q0 31 25.5 58t56.5 27q101 119 201 210q81 74 95 75q39 3 33 3q39 0 51 -5q8 -2 8 -8q0 -7 -13 -16q-138 -97 -319 -305q-6 -71 -26 -125q2 -1 6 -1q23 0 55 28q58 52 92 78
q28 64 100 154q62 78 147 139q90 64 145 64q50 0 50 -38zM657 452q-4 4 -17 -3q-50 -26 -132 -106q-75 -74 -117 -133q85 56 143 107q138 120 123 135zM60 6q-26 10 -32 31q-161 -203 -161 -239q0 -16 17 -16q41 0 109 100q60 88 67 124z" />
    <glyph glyph-name="apple" unicode="&#xf000;" horiz-adv-x="1502" 
d="M1488 477q0 -7 -11.5 -9.5t-21.5 -4.5q-23 -7 -51 -27q-10 -7 -38 -32t-36 -31q-11 -8 -22 -8q-23 0 -23 46q0 1 -1 2q-8 -4 -44.5 -46t-38.5 -42q-2 2 -2 7q0 15 86 101v6q1 3 1 5q0 12 -8 12q-7 0 -39 -34.5t-51 -34.5q-6 0 -13 2q-20 -24 -48 -24q-20 0 -30 16t-7 33
q-28 -29 -46 -29q-6 0 -12 2q-23 -22 -46 -22q-32 0 -32 44v2q-45 -46 -75 -46q-41 0 -41 46v10q-43 -53 -61 -53q-37 0 -42 55q15 6 36 26q25 22 25 34q0 3 -4 3q-8 0 -24 -15q-47 -43 -70 -112q-18 8 -18 20q0 11 8 36q-44 -49 -62 -49q-19 0 -19 27q0 14 3 28
q-35 -56 -61 -56q-22 0 -22 29q0 47 37 97q13 17 19 17q7 0 19.5 -4t12.5 -9q-12 -17 -25 -34q-24 -35 -24 -56q0 -6 3 -6q12 0 48.5 53t38.5 54q7 2 21.5 -5t14.5 -15q-13 -10 -30 -38.5t-17 -41.5q0 -7 5 -7q7 0 49 46q21 54 49 105q30 56 47 65q5 2 12 2q35 0 34 -17
q0 -4 -4 -7q-16 -11 -44.5 -49t-46.5 -75q37 44 54 44q34 0 34 -40q0 -15 -19.5 -33t-35.5 -20q0 -26 10 -26q7 0 25 19q15 18 31 35q23 66 72 66q13 0 24.5 -10.5t11.5 -23.5q0 -25 -26 -40.5t-47 -11.5q-4 -12 -4 -20q0 -23 14 -23q25 0 65 42q9 68 59 137q32 44 58 44
q25 0 30 -14q2 -5 -5 -9q-51 -32 -80 -93q0 -1 1 -1q9 8 22 8q31 0 31 -33q0 -31 -28 -66q8 -5 27 13q11 12 23 24q9 34 34 59t53 25q41 0 41 -35q0 -40 -34 -81q2 -1 6 -1q13 0 40 34q16 20 37 38q25 20 36 20q18 0 18 -18q0 -3 -1 -8t-1 -7q0 -1 1 -1l13 13q51 49 63 49
q4 0 10 -5.5t6 -9.5h-1q-8 -5 -25 -15q-38 -25 -67 -53q-3 -15 -3 -24q0 -22 9 -22q5 0 58 48.5t86 48.5q16 0 16 -15zM529 813q0 -10 -11 -10h-4q-4 -10 -12.5 -31.5t-66.5 -22.5q-61 -1 -70 24l-11 29h-1q-11 0 -11 10t11 10q12 0 12 -10q0 -3 -2 -5l16 -10l7 36
q-9 1 -9 10q0 10 11 10t11 -10q0 -6 -6 -9l20 -31l20 59q-8 2 -8 10q0 10 11 10q12 0 12 -10q0 -8 -9 -10l16 -61l21 32q-6 3 -6 9q0 10 12 10q11 0 11 -10q0 -9 -11 -10l2 -36l23 13v4q0 10 11 10t11 -10zM1343 317l-412 -243l-424 241l424 -106zM472 471q1 3 0 5
q-2 3 -11 -3q-16 -10 -70 -27q-72 -22 -122 -21q-129 3 -129 91q0 68 114 140q111 71 205 68q89 -2 89 -116q0 -139 -110 -316q-75 -118 -178 -205t-175 -87q-26 0 -45 14q-22 16 -22 41q0 67 149 184q56 43 147 93q75 41 107 52q9 3 17 15q33 52 34 72zM1202 479q0 6 -5 6
q-10 0 -20.5 -24t-10.5 -36q0 -11 7 -14q7 7 18 32t11 36zM1162 399q-14 12 -14 38q0 13 3 27q0 1 -1 1q-23 -24 -23 -61q0 -18 13 -18q15 0 22 13zM1032 464q0 9 -6 9q-7 0 -12 -18q-4 -14 -4 -24q0 -17 7 -22q15 22 15 55zM1009 396q-13 9 -13 32q0 -7 3 22q-1 0 -4 -2
q-12 -25 -12 -47q0 -19 11 -19q7 0 15 14zM936 474q0 10 -8 10q-29 0 -43 -42q14 1 32.5 12t18.5 20zM1288 290l-357 -150v-57zM931 142v59l-362 93zM495 534q15 45 15 82q0 34 -16 44q-12 7 -31 7q-52 0 -157 -55q-52 -28 -88 -59.5t-36 -50.5q0 -18 46 -18q53 0 133 18
q38 9 73 23q31 11 32 12q7 0 13.5 -6.5t9.5 -5.5q3 0 6 9zM380 311q-6 2 -71 -38q-68 -43 -120 -83q-57 -44 -97 -88q-36 -41 -36 -56q0 -7 10 -7q23 0 79 36.5t106.5 84.5t93 98t35.5 53z" />
    <glyph glyph-name="dotlessi" unicode="&#x131;" horiz-adv-x="217" 
d="M254 149q-3 -15 -24 -33l-54 -48q-42 -36 -76 -54q-48 -25 -88 -25q-53 0 -53 42q0 41 45 101q59 78 80 83q13 3 33 3q41 0 54 -6q4 -2 4 -4q0 -4 -36 -41q-21 -21 -43 -42q-51 -57 -51 -79q0 -14 12 -14q36 0 101 55q28 24 79 65q8 6 13 5t4 -8z" />
    <glyph glyph-name="breve" unicode="&#x2d8;" horiz-adv-x="303" 
d="M268 770q-13 -46 -49.5 -77.5t-77.5 -31.5q-83 0 -81 108h35q0 -61 51 -61q30 0 53 16.5t28 44.5q0 1 41 1z" />
    <glyph glyph-name="dotaccent" unicode="&#x2d9;" horiz-adv-x="191" 
d="M136 745q1 -11 -17.5 -33.5t-30.5 -22.5q-13 0 -23.5 8.5t-10.5 19.5q0 12 15.5 30t29.5 21q10 2 23 -5t14 -18z" />
    <glyph glyph-name="ring" unicode="&#x2da;" horiz-adv-x="282" 
d="M228 712q0 -41 -33.5 -72.5t-74.5 -31.5q-30 0 -49.5 18t-19.5 48q0 42 32 74.5t74 32.5q30 0 50.5 -19.5t20.5 -49.5zM190 704q0 40 -41 40q-25 0 -44 -19t-19 -44q0 -39 41 -39q24 0 43.5 18.5t19.5 43.5z" />
    <glyph glyph-name="hungarumlaut" unicode="&#x2dd;" horiz-adv-x="393" 
d="M363 743q0 -19 -18 -29l-114 -61h-36l99 100q20 20 39 20q30 0 30 -30zM214 743q0 -19 -18 -29l-114 -61h-36l99 100q20 20 39 20q30 0 30 -30z" />
    <glyph glyph-name="ogonek" unicode="&#x2db;" horiz-adv-x="257" 
d="M187 -91q7 -9 7 -20q0 -18 -17 -33q-27 -24 -63 -24q-26 0 -44 14t-18 38q0 55 88 116h22q-20 -19 -53 -60q-18 -29 -18 -49q0 -8 4 -12q11 -8 25 4q10 11 21.5 23.5t22.5 12.5q13 0 23 -10z" />
    <glyph glyph-name="caron" unicode="&#x2c7;" horiz-adv-x="321" 
d="M268 770l-75 -81q-26 -28 -52 -28q-31 0 -44 28l-37 80l23 1q11 0 16.5 -2t14.5 -15l32 -45l51 45q5 5 17 13q11 4 30 4h24z" />
    <glyph glyph-name="glyph214" horiz-adv-x="365" 
 />
    </font>
</defs>
</svg>
